<?xml version="1.0" encoding="UTF-8" standalone="no"?><!-- Generator: Gravit.io --><svg xmlns="http://www.w3.org/2000/svg" xmlns:xlink="http://www.w3.org/1999/xlink" style="isolation:isolate" viewBox="0 0 512 512" width="512pt" height="512pt"><defs><clipPath id="_clipPath_8UpfEhOcRUgHpvBy8Kp84hDjwnbap2lQ"><rect width="512" height="512"/></clipPath></defs><g clip-path="url(#_clipPath_8UpfEhOcRUgHpvBy8Kp84hDjwnbap2lQ)"><path d=" M 229.744 275.692 L 6.564 275.692 C 2.939 275.692 0 278.631 0 282.256 L 0 452.923 C 0 485.551 26.449 512 59.077 512 L 229.744 512 C 233.369 512 236.308 509.061 236.308 505.436 L 236.308 282.256 C 236.308 278.632 233.368 275.692 229.744 275.692 Z  M 160.474 429.602 C 152.785 437.291 140.317 437.295 132.625 429.602 L 118.154 415.132 L 103.684 429.603 C 95.992 437.293 83.526 437.293 75.835 429.603 C 68.145 421.914 68.145 409.445 75.835 401.754 L 90.305 387.281 L 75.834 372.81 C 68.145 365.121 68.145 352.652 75.834 344.961 C 83.524 337.27 95.992 337.27 103.683 344.961 L 118.154 359.431 L 132.624 344.96 C 140.314 337.271 152.784 337.271 160.473 344.96 C 168.164 352.649 168.164 365.118 160.473 372.809 L 146.003 387.281 L 160.474 401.752 C 168.164 409.444 168.164 421.913 160.474 429.602 Z " fill="rgb(255,69,69)"/><path d=" M 505.436 275.692 L 282.256 275.692 C 278.631 275.692 275.692 278.631 275.692 282.256 L 275.692 505.436 C 275.692 509.061 278.631 512 282.256 512 L 452.923 512 C 485.551 512 512 485.551 512 452.923 L 512 282.256 C 512 278.632 509.061 275.692 505.436 275.692 Z  M 433.861 435.371 L 353.545 435.371 C 342.67 435.371 333.853 426.554 333.853 415.679 C 333.853 404.804 342.67 395.987 353.545 395.987 L 433.861 395.987 C 444.736 395.987 453.553 404.804 453.553 415.679 C 453.553 426.554 444.736 435.371 433.861 435.371 Z  M 433.861 378.578 L 353.545 378.578 C 342.67 378.578 333.853 369.761 333.853 358.886 C 333.853 348.011 342.67 339.194 353.545 339.194 L 433.861 339.194 C 444.736 339.194 453.553 348.011 453.553 358.886 C 453.553 369.761 444.736 378.578 433.861 378.578 Z " fill="rgb(255,69,69)"/><path d=" M 229.744 0 L 59.077 0 C 26.449 0 0 26.449 0 59.077 L 0 229.744 C 0 233.369 2.939 236.308 6.564 236.308 L 229.744 236.308 C 233.369 236.308 236.308 233.369 236.308 229.744 L 236.308 6.564 C 236.308 2.939 233.368 0 229.744 0 Z  M 158.312 144.41 L 137.846 144.41 L 137.846 164.876 C 137.846 175.751 129.029 184.568 118.154 184.568 C 107.279 184.568 98.462 175.751 98.462 164.876 L 98.462 144.41 L 77.996 144.41 C 67.121 144.41 58.304 135.593 58.304 124.718 C 58.304 113.843 67.121 105.026 77.996 105.026 L 98.462 105.026 L 98.462 84.56 C 98.462 73.685 107.279 64.868 118.154 64.868 C 129.029 64.868 137.846 73.685 137.846 84.56 L 137.846 105.026 L 158.312 105.026 C 169.187 105.026 178.004 113.843 178.004 124.718 C 178.004 135.593 169.187 144.41 158.312 144.41 Z " fill="rgb(255,69,69)"/><path d=" M 452.923 0 L 282.256 0 C 278.631 0 275.692 2.939 275.692 6.564 L 275.692 229.744 C 275.692 233.369 278.631 236.308 282.256 236.308 L 505.436 236.308 C 509.061 236.308 512 233.369 512 229.744 L 512 59.077 C 512 26.449 485.551 0 452.923 0 Z  M 433.862 144.41 L 353.546 144.41 C 342.671 144.41 333.854 135.593 333.854 124.718 C 333.854 113.843 342.67 105.026 353.546 105.026 L 433.862 105.026 C 444.737 105.026 453.554 113.843 453.554 124.718 C 453.554 135.593 444.738 144.41 433.862 144.41 Z " fill="rgb(255,69,69)"/></g></svg>