<?xml version="1.0" encoding="UTF-8" standalone="no"?><!-- Generator: Gravit.io --><svg xmlns="http://www.w3.org/2000/svg" xmlns:xlink="http://www.w3.org/1999/xlink" style="isolation:isolate" viewBox="0 0 512 512" width="512pt" height="512pt"><defs><clipPath id="_clipPath_uSMFZNoMqrXODr8iUwqnxwK79cxsvO9q"><rect width="512" height="512"/></clipPath></defs><g clip-path="url(#_clipPath_uSMFZNoMqrXODr8iUwqnxwK79cxsvO9q)"><path d=" M 489.77 463.957 L 84.14 463.957 C 71.7 463.957 61.605 474.551 61.605 487.607 C 61.605 500.663 71.7 511.257 84.14 511.257 L 489.77 511.257 C 502.21 511.257 512.305 500.663 512.305 487.607 C 512.305 474.551 502.21 463.957 489.77 463.957 Z " fill="rgb(255,69,69)"/><path d=" M 202.433 441.304 C 220.516 441.304 238.597 434.414 252.358 420.661 L 433.59 239.506 C 442.979 230.12 442.979 214.95 433.59 205.564 L 235.884 7.943 C 226.495 -1.442 211.317 -1.442 201.928 7.943 L 20.671 189.074 C -6.848 216.581 -6.848 261.372 20.671 288.881 L 152.484 420.636 C 166.268 434.414 184.35 441.304 202.433 441.304 Z  M 218.907 58.831 L 382.658 222.512 L 379.872 225.295 L 53.139 225.295 C 53.715 224.575 53.979 223.687 54.652 223.016 L 218.907 58.831 Z " fill="rgb(255,69,69)"/><path d=" M 401.901 382.678 C 401.901 413.327 425.104 438.273 453.601 438.273 C 482.098 438.273 505.301 413.327 505.301 382.678 C 505.301 357.97 475.646 309.22 466.547 294.885 C 460.818 285.802 446.384 285.802 440.655 294.885 C 431.556 309.22 401.901 357.97 401.901 382.678 Z " fill="rgb(255,69,69)"/></g></svg>