<?xml version="1.0" encoding="UTF-8" standalone="no"?><!-- Generator: Gravit.io --><svg xmlns="http://www.w3.org/2000/svg" xmlns:xlink="http://www.w3.org/1999/xlink" style="isolation:isolate" viewBox="0 0 512 512" width="512pt" height="512pt"><defs><clipPath id="_clipPath_i7zebJHbuRNRgUSKyQoPfSBe0J7Mt0pf"><rect width="512" height="512"/></clipPath></defs><g clip-path="url(#_clipPath_i7zebJHbuRNRgUSKyQoPfSBe0J7Mt0pf)"><path d=" M 484.672 163.072 C 489.248 167.648 496.128 169.024 502.112 166.528 C 508.096 164.064 512 158.24 512 151.776 L 512 16 C 512 7.168 504.832 0 496 0 L 360.224 0 C 353.76 0 347.904 3.904 345.44 9.888 C 342.944 15.872 344.32 22.752 348.896 27.328 L 382.848 61.28 L 256 188.128 L 129.12 61.248 L 163.072 27.296 C 167.648 22.72 169.024 15.84 166.528 9.856 C 164.064 3.904 158.24 0 151.776 0 L 16 0 C 7.168 0 0 7.168 0 16 L 0 151.776 C 0 158.24 3.904 164.064 9.888 166.56 C 15.872 169.056 22.752 167.648 27.328 163.104 L 61.28 129.152 L 188.128 256 L 61.248 382.88 L 27.296 348.928 C 22.72 344.352 15.84 342.976 9.856 345.472 C 3.904 347.936 0 353.76 0 360.224 L 0 496 C 0 504.832 7.168 512 16 512 L 151.776 512 C 158.24 512 164.096 508.096 166.56 502.112 C 169.056 496.128 167.68 489.248 163.104 484.672 L 129.152 450.72 L 256 323.872 L 382.88 450.752 L 348.928 484.704 C 344.352 489.28 342.976 496.16 345.472 502.144 C 347.936 508.096 353.76 512 360.224 512 L 496 512 C 504.832 512 512 504.832 512 496 L 512 360.224 C 512 353.76 508.096 347.936 502.112 345.44 C 496.128 342.944 489.248 344.352 484.672 348.896 L 450.72 382.848 L 323.872 256 L 450.752 129.12 L 484.672 163.072 L 484.672 163.072 Z " fill="rgb(255,69,69)"/></g></svg>