<?xml version="1.0" encoding="UTF-8" standalone="no"?><!-- Generator: Gravit.io --><svg xmlns="http://www.w3.org/2000/svg" xmlns:xlink="http://www.w3.org/1999/xlink" style="isolation:isolate" viewBox="0 0 360.49 360.49" width="360.49pt" height="360.49pt"><defs><clipPath id="_clipPath_r0DY2x63z5Z2QOp9ifw00iJqppCu8ncN"><rect width="360.49" height="360.49"/></clipPath></defs><g clip-path="url(#_clipPath_r0DY2x63z5Z2QOp9ifw00iJqppCu8ncN)"><path d=" M 222.041 0 L 138.449 0 C 132.678 0 128 4.678 128 10.449 L 128 94.041 C 128 99.812 132.678 104.49 138.449 104.49 L 222.041 104.49 C 227.812 104.49 232.49 99.812 232.49 94.041 L 232.49 10.449 C 232.49 4.678 227.812 0 222.041 0 Z " fill="rgb(255,69,69)"/><path d=" M 96.653 125.388 L 13.061 125.388 C 7.29 125.388 2.612 130.066 2.612 135.837 L 2.612 219.429 C 2.612 225.2 7.29 229.878 13.061 229.878 L 96.653 229.878 C 102.424 229.878 107.102 225.2 107.102 219.429 L 107.102 135.837 C 107.102 130.066 102.424 125.388 96.653 125.388 Z " fill="rgb(255,69,69)"/><path d=" M 222.041 125.388 L 138.449 125.388 C 132.678 125.388 128 130.066 128 135.837 L 128 219.429 C 128 225.2 132.678 229.878 138.449 229.878 L 222.041 229.878 C 227.812 229.878 232.49 225.2 232.49 219.429 L 232.49 135.837 C 232.49 130.066 227.812 125.388 222.041 125.388 Z " fill="rgb(255,69,69)"/><path d=" M 347.429 0 L 263.837 0 C 258.066 0 253.388 4.678 253.388 10.449 L 253.388 94.041 C 253.388 99.812 258.066 104.49 263.837 104.49 L 347.429 104.49 C 353.2 104.49 357.878 99.812 357.878 94.041 L 357.878 10.449 C 357.878 4.678 353.199 0 347.429 0 Z " fill="rgb(255,69,69)"/><path d=" M 347.429 125.388 L 263.837 125.388 C 258.066 125.388 253.388 130.066 253.388 135.837 L 253.388 219.429 C 253.388 225.2 258.066 229.878 263.837 229.878 L 347.429 229.878 C 353.2 229.878 357.878 225.2 357.878 219.429 L 357.878 135.837 C 357.878 130.066 353.199 125.388 347.429 125.388 Z " fill="rgb(255,69,69)"/><path d=" M 96.653 256 L 13.061 256 C 7.29 256 2.612 260.678 2.612 266.449 L 2.612 350.041 C 2.612 355.812 7.29 360.49 13.061 360.49 L 96.653 360.49 C 102.424 360.49 107.102 355.812 107.102 350.041 L 107.102 266.449 C 107.102 260.678 102.424 256 96.653 256 Z " fill="rgb(255,69,69)"/><path d=" M 222.041 256 L 138.449 256 C 132.678 256 128 260.678 128 266.449 L 128 350.041 C 128 355.812 132.678 360.49 138.449 360.49 L 222.041 360.49 C 227.812 360.49 232.49 355.812 232.49 350.041 L 232.49 266.449 C 232.49 260.678 227.812 256 222.041 256 Z " fill="rgb(255,69,69)"/><path d=" M 347.429 256 L 263.837 256 C 258.066 256 253.388 260.678 253.388 266.449 L 253.388 350.041 C 253.388 355.812 258.066 360.49 263.837 360.49 L 347.429 360.49 C 353.2 360.49 357.878 355.812 357.878 350.041 L 357.878 266.449 C 357.878 260.678 353.199 256 347.429 256 Z " fill="rgb(255,69,69)"/><path d=" M 96.653 0 L 13.061 0 C 7.29 0 2.612 4.678 2.612 10.449 L 2.612 94.041 C 2.612 99.812 7.29 104.49 13.061 104.49 L 96.653 104.49 C 102.424 104.49 107.102 99.812 107.102 94.041 L 107.102 10.449 C 107.102 4.678 102.424 0 96.653 0 Z " fill="rgb(255,69,69)"/></g></svg>