<?xml version="1.0" encoding="UTF-8" standalone="no"?><!-- Generator: Gravit.io --><svg xmlns="http://www.w3.org/2000/svg" xmlns:xlink="http://www.w3.org/1999/xlink" style="isolation:isolate" viewBox="0 0 512 512" width="512pt" height="512pt"><defs><clipPath id="_clipPath_51WfhrcBlfgjAHtR0rOJOM8hsFGbaaTl"><rect width="512" height="512"/></clipPath></defs><g clip-path="url(#_clipPath_51WfhrcBlfgjAHtR0rOJOM8hsFGbaaTl)"><path d=" M 300.456 289.04 C 300.456 243.841 263.946 207.2 218.907 207.2 C 190.084 207.2 164.754 222.207 150.25 244.86 C 135.747 222.207 110.417 207.2 81.593 207.2 C 36.554 207.2 0.044 243.841 0.044 289.04 C 0.044 289.04 -6.774 378.409 150.25 480.7 C 307.274 378.409 300.456 289.04 300.456 289.04 L 300.456 289.04 Z " fill="rgb(255,69,69)"/><path d=" M 511.941 141.691 C 511.941 80.766 462.551 31.376 401.626 31.376 C 362.635 31.376 328.37 51.605 308.751 82.14 C 289.132 51.605 254.867 31.376 215.876 31.376 C 154.951 31.376 105.561 80.766 105.561 141.691 C 105.561 141.691 104.064 161.293 116.213 193.729 C 126.654 197.528 136.45 202.89 145.255 209.676 C 163.988 195.237 187.167 187.154 211.63 187.154 C 240.702 187.154 268.033 198.475 288.59 219.032 C 308.952 239.394 320.253 266.403 320.465 295.167 C 320.78 302.756 320.162 328.564 301.491 365.028 C 297.779 372.276 293.558 379.519 288.86 386.736 C 295.266 391.15 301.891 395.585 308.752 400.038 C 521.163 262.156 511.941 141.691 511.941 141.691 L 511.941 141.691 Z " fill="rgb(255,69,69)"/></g></svg>