<?xml version="1.0" encoding="UTF-8" standalone="no"?><!-- Generator: Gravit.io --><svg xmlns="http://www.w3.org/2000/svg" xmlns:xlink="http://www.w3.org/1999/xlink" style="isolation:isolate" viewBox="0 0 650 265" width="650pt" height="265pt"><defs><clipPath id="_clipPath_EHMjohUqAhsfA3ZAFZCzjtmNk4h6tQKm"><rect width="650" height="265"/></clipPath></defs><g clip-path="url(#_clipPath_EHMjohUqAhsfA3ZAFZCzjtmNk4h6tQKm)"><g><mask id="_mask_GKlIXC7Y2MV0xgWUh5MnfhOHf2cUwfOv" x="-200%" y="-200%" width="400%" height="400%"><rect x="-200%" y="-200%" width="400%" height="400%" style="fill:white;"/><path d=" M 126.008 41.765 C 126.008 37.738 129.264 34.482 133.298 34.482 L 386.872 34.482 C 390.899 34.482 394.162 37.741 394.162 41.765 L 394.162 215.307 C 394.162 219.334 390.906 222.591 386.872 222.591 L 133.298 222.591 C 129.271 222.591 126.008 219.332 126.008 215.307 L 126.008 41.765 Z " fill-rule="evenodd" fill="black" stroke="none"/></mask><path d=" M 126.008 41.765 C 126.008 37.738 129.264 34.482 133.298 34.482 L 386.872 34.482 C 390.899 34.482 394.162 37.741 394.162 41.765 L 394.162 215.307 C 394.162 219.334 390.906 222.591 386.872 222.591 L 133.298 222.591 C 129.271 222.591 126.008 219.332 126.008 215.307 L 126.008 41.765 Z " fill-rule="evenodd" fill="rgb(255,255,255)" mask="url(#_mask_GKlIXC7Y2MV0xgWUh5MnfhOHf2cUwfOv)" vector-effect="non-scaling-stroke" stroke-width="4.163" stroke="rgb(255,73,89)" stroke-linejoin="miter" stroke-linecap="butt" stroke-miterlimit="4"/><path d=" M 126.008 41.765 C 126.008 37.738 129.264 34.482 133.298 34.482 L 386.872 34.482 C 390.899 34.482 394.162 37.741 394.162 41.765 L 394.162 215.307 C 394.162 219.334 390.906 222.591 386.872 222.591 L 133.298 222.591 C 129.271 222.591 126.008 219.332 126.008 215.307 L 126.008 41.765 Z " fill-rule="evenodd" fill="rgb(255,255,255)"/><mask id="_mask_H0KEOUezkfdsKYbPvvvJ9UKfY8qqusfR" x="-200%" y="-200%" width="400%" height="400%"><rect x="-200%" y="-200%" width="400%" height="400%" style="fill:white;"/><path d=" M 142.41 53.737 C 142.41 52.012 143.813 50.613 145.536 50.613 L 374.374 50.613 C 376.103 50.613 377.5 52.004 377.5 53.737 L 377.5 183.042 C 377.5 184.766 376.097 186.166 374.374 186.166 L 145.536 186.166 C 143.807 186.166 142.41 184.774 142.41 183.042 L 142.41 53.737 Z " fill-rule="evenodd" fill="black" stroke="none"/></mask><path d=" M 142.41 53.737 C 142.41 52.012 143.813 50.613 145.536 50.613 L 374.374 50.613 C 376.103 50.613 377.5 52.004 377.5 53.737 L 377.5 183.042 C 377.5 184.766 376.097 186.166 374.374 186.166 L 145.536 186.166 C 143.807 186.166 142.41 184.774 142.41 183.042 L 142.41 53.737 Z " fill-rule="evenodd" fill="rgb(255,255,255)" mask="url(#_mask_H0KEOUezkfdsKYbPvvvJ9UKfY8qqusfR)" vector-effect="non-scaling-stroke" stroke-width="4.163" stroke="rgb(255,73,89)" stroke-linejoin="miter" stroke-linecap="butt" stroke-miterlimit="4"/><path d=" M 142.41 53.737 C 142.41 52.012 143.813 50.613 145.536 50.613 L 374.374 50.613 C 376.103 50.613 377.5 52.004 377.5 53.737 L 377.5 183.042 C 377.5 184.766 376.097 186.166 374.374 186.166 L 145.536 186.166 C 143.807 186.166 142.41 184.774 142.41 183.042 L 142.41 53.737 Z " fill-rule="evenodd" fill="rgb(255,255,255)"/><mask id="_mask_YfJosbdzrRWfoFtEeOiaYYokk5VJqNhD" x="-200%" y="-200%" width="400%" height="400%"><rect x="-200%" y="-200%" width="400%" height="400%" style="fill:white;"/><path d=" M 240.99 222.591 L 279.441 222.591 L 282.037 256.154 L 238.394 256.154 L 240.99 222.591 Z " fill-rule="evenodd" fill="black" stroke="none"/></mask><path d=" M 240.99 222.591 L 279.441 222.591 L 282.037 256.154 L 238.394 256.154 L 240.99 222.591 Z " fill-rule="evenodd" fill="rgb(255,255,255)" mask="url(#_mask_YfJosbdzrRWfoFtEeOiaYYokk5VJqNhD)" vector-effect="non-scaling-stroke" stroke-width="4.163" stroke="rgb(255,73,89)" stroke-linejoin="miter" stroke-linecap="butt" stroke-miterlimit="4"/><path d=" M 240.99 222.591 L 279.441 222.591 L 282.037 256.154 L 238.394 256.154 L 240.99 222.591 Z " fill-rule="evenodd" fill="rgb(255,255,255)"/><mask id="_mask_CohbhFxbkuDS4OvigrEOhuv8PFm9x04Q" x="-200%" y="-200%" width="400%" height="400%"><rect x="-200%" y="-200%" width="400%" height="400%" style="fill:white;"/><path d=" M 222.334 263.442 L 222.334 259.927 C 222.334 257.846 224.024 256.154 226.104 256.154 L 294.326 256.154 C 296.402 256.154 298.096 257.846 298.096 259.927 L 298.096 263.442 C 298.096 263.587 297.984 263.699 297.835 263.699 L 222.596 263.699 C 222.45 263.699 222.334 263.584 222.334 263.442 Z " fill-rule="evenodd" fill="black" stroke="none"/></mask><path d=" M 222.334 263.442 L 222.334 259.927 C 222.334 257.846 224.024 256.154 226.104 256.154 L 294.326 256.154 C 296.402 256.154 298.096 257.846 298.096 259.927 L 298.096 263.442 C 298.096 263.587 297.984 263.699 297.835 263.699 L 222.596 263.699 C 222.45 263.699 222.334 263.584 222.334 263.442 Z " fill-rule="evenodd" fill="rgb(255,255,255)" mask="url(#_mask_CohbhFxbkuDS4OvigrEOhuv8PFm9x04Q)" vector-effect="non-scaling-stroke" stroke-width="4.163" stroke="rgb(255,73,89)" stroke-linejoin="miter" stroke-linecap="butt" stroke-miterlimit="4"/><path d=" M 222.334 263.442 L 222.334 259.927 C 222.334 257.846 224.024 256.154 226.104 256.154 L 294.326 256.154 C 296.402 256.154 298.096 257.846 298.096 259.927 L 298.096 263.442 C 298.096 263.587 297.984 263.699 297.835 263.699 L 222.596 263.699 C 222.45 263.699 222.334 263.584 222.334 263.442 Z " fill-rule="evenodd" fill="rgb(255,255,255)"/><ellipse vector-effect="non-scaling-stroke" cx="260.215348" cy="205.809335" rx="4.816392129999997" ry="4.813306850000004" fill="none" stroke-width="2.081" stroke="rgb(255,73,89)" stroke-linejoin="miter" stroke-linecap="butt" stroke-miterlimit="4"/><path d="M 107.519 162.75 L 146.578 162.75 C 150.024 162.75 152.822 165.548 152.822 168.994 L 152.822 257.455 C 152.822 260.901 150.024 263.699 146.578 263.699 L 107.519 263.699 C 104.073 263.699 101.275 260.901 101.275 257.455 L 101.275 168.994 C 101.275 165.548 104.073 162.75 107.519 162.75 Z" style="stroke:none;fill:#FFFFFF;stroke-miterlimit:10;"/><path d="M 107.519 162.75 L 146.578 162.75 C 150.024 162.75 152.822 165.548 152.822 168.994 L 152.822 257.455 C 152.822 260.901 150.024 263.699 146.578 263.699 L 107.519 263.699 C 104.073 263.699 101.275 260.901 101.275 257.455 L 101.275 168.994 C 101.275 165.548 104.073 162.75 107.519 162.75 Z" style="fill:none;stroke:#FF4959;stroke-width:2.08142999;stroke-miterlimit:2;"/><mask id="_mask_jLZmVWMzp6dsYaLVTMmnRVIH3lsaz1F7" x="-200%" y="-200%" width="400%" height="400%"><rect x="-200%" y="-200%" width="400%" height="400%" style="fill:white;"/><path d=" M 101.275 173.937 L 152.822 173.937 L 152.822 248.687 L 101.275 248.687 L 101.275 173.937 Z " fill-rule="evenodd" fill="black" stroke="none"/></mask><path d=" M 101.275 173.937 L 152.822 173.937 L 152.822 248.687 L 101.275 248.687 L 101.275 173.937 Z " fill-rule="evenodd" fill="rgb(255,255,255)" mask="url(#_mask_jLZmVWMzp6dsYaLVTMmnRVIH3lsaz1F7)" vector-effect="non-scaling-stroke" stroke-width="4.163" stroke="rgb(255,73,89)" stroke-linejoin="miter" stroke-linecap="butt" stroke-miterlimit="4"/><path d=" M 101.275 173.937 L 152.822 173.937 L 152.822 248.687 L 101.275 248.687 L 101.275 173.937 Z " fill-rule="evenodd" fill="rgb(255,255,255)"/><path d="M 115.853 167.173 L 138.504 167.173 C 139.079 167.173 139.545 167.639 139.545 168.214 L 139.545 168.214 C 139.545 168.788 139.079 169.254 138.504 169.254 L 115.853 169.254 C 115.279 169.254 114.812 168.788 114.812 168.214 L 114.812 168.214 C 114.812 167.639 115.279 167.173 115.853 167.173 Z" style="stroke:none;fill:#FF4959;stroke-miterlimit:2;"/><path d="M 115.853 167.173 L 138.504 167.173 C 139.079 167.173 139.545 167.639 139.545 168.214 L 139.545 168.214 C 139.545 168.788 139.079 169.254 138.504 169.254 L 115.853 169.254 C 115.279 169.254 114.812 168.788 114.812 168.214 L 114.812 168.214 C 114.812 167.639 115.279 167.173 115.853 167.173 Z" style="fill:none;stroke:#FF4959;stroke-width:1;stroke-miterlimit:2;"/><path d="M 127.151 253.032 L 127.155 253.032 C 128.792 253.032 130.121 254.361 130.121 255.998 L 130.121 255.998 C 130.121 257.635 128.792 258.964 127.155 258.964 L 127.151 258.964 C 125.514 258.964 124.185 257.635 124.185 255.998 L 124.185 255.998 C 124.185 254.361 125.514 253.032 127.151 253.032 Z" style="stroke:none;fill:#FF4959;stroke-miterlimit:2;"/><path d="M 127.151 253.032 L 127.155 253.032 C 128.792 253.032 130.121 254.361 130.121 255.998 L 130.121 255.998 C 130.121 257.635 128.792 258.964 127.155 258.964 L 127.151 258.964 C 125.514 258.964 124.185 257.635 124.185 255.998 L 124.185 255.998 C 124.185 254.361 125.514 253.032 127.151 253.032 Z" style="fill:none;stroke:#FF4959;stroke-width:1;stroke-miterlimit:2;"/><ellipse vector-effect="non-scaling-stroke" cx="115.853757" cy="211.142999" rx="3.9051828000000057" ry="3.902681230000013" fill="rgb(255,255,255)" stroke-width="2.081" stroke="rgb(255,73,89)" stroke-linejoin="miter" stroke-linecap="butt" stroke-miterlimit="4"/><path d="M 126.007 204.378 L 142.149 204.378 C 142.724 204.378 143.19 204.845 143.19 205.419 L 143.19 205.419 C 143.19 205.993 142.724 206.46 142.149 206.46 L 126.007 206.46 C 125.432 206.46 124.966 205.993 124.966 205.419 L 124.966 205.419 C 124.966 204.845 125.432 204.378 126.007 204.378 Z" style="stroke:none;fill:#FF4959;stroke-miterlimit:2;"/><path d="M 126.007 210.102 L 136.942 210.102 C 137.517 210.102 137.983 210.569 137.983 211.143 L 137.983 211.143 C 137.983 211.717 137.517 212.184 136.942 212.184 L 126.007 212.184 C 125.432 212.184 124.966 211.717 124.966 211.143 L 124.966 211.143 C 124.966 210.569 125.432 210.102 126.007 210.102 Z" style="stroke:none;fill:#FF4959;stroke-miterlimit:2;"/><path d="M 126.007 215.826 L 131.736 215.826 C 132.31 215.826 132.776 216.293 132.776 216.867 L 132.776 216.867 C 132.776 217.441 132.31 217.908 131.736 217.908 L 126.007 217.908 C 125.432 217.908 124.966 217.441 124.966 216.867 L 124.966 216.867 C 124.966 216.293 125.432 215.826 126.007 215.826 Z" style="stroke:none;fill:#FF4959;stroke-miterlimit:2;"/><ellipse vector-effect="non-scaling-stroke" cx="74.84933709999999" cy="171.725919" rx="39.96370449999999" ry="39.93743789999999" fill="rgb(255,255,255)" stroke-width="2.081" stroke="rgb(255,73,89)" stroke-linejoin="miter" stroke-linecap="butt" stroke-miterlimit="4"/><path d="M 325.949 123.463 L 506.115 123.463 C 509.561 123.463 512.359 126.261 512.359 129.707 L 512.359 246.527 C 512.359 249.974 509.561 252.772 506.115 252.772 L 325.949 252.772 C 322.503 252.772 319.705 249.974 319.705 246.527 L 319.705 129.707 C 319.705 126.261 322.503 123.463 325.949 123.463 Z" style="stroke:none;fill:#FFFFFF;stroke-miterlimit:2;"/><path d="M 325.949 123.463 L 506.115 123.463 C 509.561 123.463 512.359 126.261 512.359 129.707 L 512.359 246.527 C 512.359 249.974 509.561 252.772 506.115 252.772 L 325.949 252.772 C 322.503 252.772 319.705 249.974 319.705 246.527 L 319.705 129.707 C 319.705 126.261 322.503 123.463 325.949 123.463 Z" style="fill:none;stroke:#FF4959;stroke-width:2.08142999;stroke-miterlimit:2;"/><mask id="_mask_jK5V2IleRbiOpy51NozK7QZpJyekg6qz" x="-200%" y="-200%" width="400%" height="400%"><rect x="-200%" y="-200%" width="400%" height="400%" style="fill:white;"/><path d=" M 306.426 253.026 L 306.426 258.235 C 306.426 261.248 308.874 263.699 311.888 263.699 L 520.176 263.699 C 523.187 263.699 525.638 261.25 525.638 258.235 L 525.638 253.026 C 525.638 252.884 525.525 252.772 525.379 252.772 L 306.685 252.772 C 306.539 252.772 306.426 252.884 306.426 253.026 Z " fill-rule="evenodd" fill="black" stroke="none"/></mask><path d=" M 306.426 253.026 L 306.426 258.235 C 306.426 261.248 308.874 263.699 311.888 263.699 L 520.176 263.699 C 523.187 263.699 525.638 261.25 525.638 258.235 L 525.638 253.026 C 525.638 252.884 525.525 252.772 525.379 252.772 L 306.685 252.772 C 306.539 252.772 306.426 252.884 306.426 253.026 Z " fill-rule="evenodd" fill="rgb(255,255,255)" mask="url(#_mask_jK5V2IleRbiOpy51NozK7QZpJyekg6qz)" vector-effect="non-scaling-stroke" stroke-width="4.163" stroke="rgb(255,73,89)" stroke-linejoin="miter" stroke-linecap="butt" stroke-miterlimit="4"/><path d=" M 306.426 253.026 L 306.426 258.235 C 306.426 261.248 308.874 263.699 311.888 263.699 L 520.176 263.699 C 523.187 263.699 525.638 261.25 525.638 258.235 L 525.638 253.026 C 525.638 252.884 525.525 252.772 525.379 252.772 L 306.685 252.772 C 306.539 252.772 306.426 252.884 306.426 253.026 Z " fill-rule="evenodd" fill="rgb(255,255,255)"/><mask id="_mask_qtQmHIKIoS2XfVINrcUZOc6X1Zn7Acik" x="-200%" y="-200%" width="400%" height="400%"><rect x="-200%" y="-200%" width="400%" height="400%" style="fill:white;"/><path d=" M 430.429 252.889 L 401.27 252.888 C 402.434 255.961 405.402 258.092 408.808 258.092 L 422.891 258.092 C 426.297 258.092 429.265 255.962 430.429 252.889 Z " fill-rule="evenodd" fill="black" stroke="none"/></mask><path d=" M 430.429 252.889 L 401.27 252.888 C 402.434 255.961 405.402 258.092 408.808 258.092 L 422.891 258.092 C 426.297 258.092 429.265 255.962 430.429 252.889 Z " fill-rule="evenodd" fill="rgb(255,255,255)" mask="url(#_mask_qtQmHIKIoS2XfVINrcUZOc6X1Zn7Acik)" vector-effect="non-scaling-stroke" stroke-width="4.163" stroke="rgb(255,73,89)" stroke-linejoin="miter" stroke-linecap="butt" stroke-miterlimit="4"/><path d=" M 430.429 252.889 L 401.27 252.888 C 402.434 255.961 405.402 258.092 408.808 258.092 L 422.891 258.092 C 426.297 258.092 429.265 255.962 430.429 252.889 Z " fill-rule="evenodd" fill="rgb(255,255,255)"/><path d="M 330.376 135.691 L 501.533 135.691 C 502.682 135.691 503.615 136.624 503.615 137.773 L 503.615 238.683 C 503.615 239.832 502.682 240.764 501.533 240.764 L 330.376 240.764 C 329.228 240.764 328.295 239.832 328.295 238.683 L 328.295 137.773 C 328.295 136.624 329.228 135.691 330.376 135.691 Z" style="stroke:none;fill:#FFFFFF;stroke-miterlimit:2;"/><path d="M 330.376 135.691 L 501.533 135.691 C 502.682 135.691 503.615 136.624 503.615 137.773 L 503.615 238.683 C 503.615 239.832 502.682 240.764 501.533 240.764 L 330.376 240.764 C 329.228 240.764 328.295 239.832 328.295 238.683 L 328.295 137.773 C 328.295 136.624 329.228 135.691 330.376 135.691 Z" style="fill:none;stroke:#FF4959;stroke-width:2.08142999;stroke-miterlimit:2;"/><ellipse vector-effect="non-scaling-stroke" cx="254.357573" cy="52.9543198" rx="1.3017275999999924" ry="1.3008937399999994" fill="rgb(41,51,71)"/><mask id="_mask_qekhhw9fCVhQCIVWnoZ10ZYnqZ5RFIDe" x="-200%" y="-200%" width="400%" height="400%"><rect x="-200%" y="-200%" width="400%" height="400%" style="fill:white;"/><path d=" M 179.899 14.968 L 300.178 14.968 L 300.178 130.228 C 300.178 134.249 296.909 137.512 292.886 137.512 L 187.191 137.512 C 183.166 137.512 179.899 134.248 179.899 130.228 L 179.899 14.968 Z " fill-rule="evenodd" fill="black" stroke="none"/></mask><path d=" M 179.899 14.968 L 300.178 14.968 L 300.178 130.228 C 300.178 134.249 296.909 137.512 292.886 137.512 L 187.191 137.512 C 183.166 137.512 179.899 134.248 179.899 130.228 L 179.899 14.968 Z " fill-rule="evenodd" fill="rgb(255,255,255)" mask="url(#_mask_qekhhw9fCVhQCIVWnoZ10ZYnqZ5RFIDe)" vector-effect="non-scaling-stroke" stroke-width="4.163" stroke="rgb(255,73,89)" stroke-linejoin="miter" stroke-linecap="butt" stroke-miterlimit="4"/><path d=" M 179.899 14.968 L 300.178 14.968 L 300.178 130.228 C 300.178 134.249 296.909 137.512 292.886 137.512 L 187.191 137.512 C 183.166 137.512 179.899 134.248 179.899 130.228 L 179.899 14.968 Z " fill-rule="evenodd" fill="rgb(255,255,255)"/><mask id="_mask_G1SZK3fMSlukyIX7XFoP3cEjsjQhpP2j" x="-200%" y="-200%" width="400%" height="400%"><rect x="-200%" y="-200%" width="400%" height="400%" style="fill:white;"/><path d=" M 179.899 9.238 C 179.899 5.22 183.169 1.959 187.191 1.959 L 292.886 1.959 C 296.913 1.959 300.178 5.216 300.178 9.238 L 300.178 17.05 L 179.899 17.05 L 179.899 9.238 Z " fill-rule="evenodd" fill="black" stroke="none"/></mask><path d=" M 179.899 9.238 C 179.899 5.22 183.169 1.959 187.191 1.959 L 292.886 1.959 C 296.913 1.959 300.178 5.216 300.178 9.238 L 300.178 17.05 L 179.899 17.05 L 179.899 9.238 Z " fill-rule="evenodd" fill="rgb(255,255,255)" mask="url(#_mask_G1SZK3fMSlukyIX7XFoP3cEjsjQhpP2j)" vector-effect="non-scaling-stroke" stroke-width="4.163" stroke="rgb(255,73,89)" stroke-linejoin="miter" stroke-linecap="butt" stroke-miterlimit="4"/><path d=" M 179.899 9.238 C 179.899 5.22 183.169 1.959 187.191 1.959 L 292.886 1.959 C 296.913 1.959 300.178 5.216 300.178 9.238 L 300.178 17.05 L 179.899 17.05 L 179.899 9.238 Z " fill-rule="evenodd" fill="rgb(255,255,255)"/><ellipse vector-effect="non-scaling-stroke" cx="191.093612" cy="9.50446872" rx="2.3431096799999978" ry="2.34160874" fill="rgb(255,73,89)"/><ellipse vector-effect="non-scaling-stroke" cx="198.903978" cy="9.50446872" rx="2.3431096799999978" ry="2.34160874" fill="rgb(255,73,89)"/><ellipse vector-effect="non-scaling-stroke" cx="206.714343" cy="9.50446872" rx="2.3431096799999978" ry="2.34160874" fill="rgb(255,73,89)"/><path d="M 195.519 90.94 L 198.124 90.94 C 198.698 90.94 199.164 91.407 199.164 91.981 L 199.164 91.981 C 199.164 92.556 198.698 93.022 198.124 93.022 L 195.519 93.022 C 194.944 93.022 194.478 92.556 194.478 91.981 L 194.478 91.981 C 194.478 91.407 194.944 90.94 195.519 90.94 Z" style="stroke:none;fill:#FF4959;stroke-miterlimit:2;"/><path d="M 195.519 38.905 L 198.124 38.905 C 198.698 38.905 199.164 39.371 199.164 39.945 L 199.164 39.945 C 199.164 40.52 198.698 40.986 198.124 40.986 L 195.519 40.986 C 194.944 40.986 194.478 40.52 194.478 39.945 L 194.478 39.945 C 194.478 39.371 194.944 38.905 195.519 38.905 Z" style="stroke:none;fill:#FF4959;stroke-miterlimit:2;"/><path d=" M 203.329 38.905 L 210.36 38.905 C 210.935 38.905 211.401 39.371 211.401 39.945 C 211.401 40.52 210.935 40.986 210.36 40.986 L 203.329 40.986 C 202.754 40.986 202.288 40.52 202.288 39.945 C 202.288 39.371 202.754 38.905 203.329 38.905 Z " fill-rule="evenodd" fill="rgb(255,73,89)"/><path d=" M 215.045 38.905 L 222.075 38.905 C 222.65 38.905 223.116 39.371 223.116 39.945 C 223.116 40.52 222.65 40.986 222.075 40.986 L 215.045 40.986 C 214.47 40.986 214.004 40.52 214.004 39.945 C 214.004 39.371 214.47 38.905 215.045 38.905 Z " fill-rule="evenodd" fill="rgb(255,73,89)"/><path d=" M 226.76 38.905 L 239.779 38.905 C 240.354 38.905 240.82 39.371 240.82 39.945 C 240.82 40.52 240.354 40.986 239.779 40.986 L 226.76 40.986 C 226.186 40.986 225.72 40.52 225.72 39.945 C 225.72 39.371 226.186 38.905 226.76 38.905 Z " fill-rule="evenodd" fill="rgb(255,73,89)"/><path d=" M 244.464 38.905 L 263.731 38.905 C 264.305 38.905 264.771 39.371 264.771 39.945 C 264.771 40.52 264.305 40.986 263.731 40.986 L 244.464 40.986 C 243.889 40.986 243.423 40.52 243.423 39.945 C 243.423 39.371 243.889 38.905 244.464 38.905 Z " fill-rule="evenodd" fill="rgb(255,73,89)"/><path d="M 195.519 49.312 L 198.124 49.312 C 198.698 49.312 199.164 49.778 199.164 50.353 L 199.164 50.353 C 199.164 50.927 198.698 51.393 198.124 51.393 L 195.519 51.393 C 194.944 51.393 194.478 50.927 194.478 50.353 L 194.478 50.353 C 194.478 49.778 194.944 49.312 195.519 49.312 Z" style="stroke:none;fill:#FF4959;stroke-miterlimit:2;"/><path d="M 195.519 59.719 L 198.124 59.719 C 198.698 59.719 199.164 60.185 199.164 60.76 L 199.164 60.76 C 199.164 61.334 198.698 61.8 198.124 61.8 L 195.519 61.8 C 194.944 61.8 194.478 61.334 194.478 60.76 L 194.478 60.76 C 194.478 60.185 194.944 59.719 195.519 59.719 Z" style="stroke:none;fill:#FF4959;stroke-miterlimit:2;"/><path d="M 195.519 70.126 L 198.124 70.126 C 198.698 70.126 199.164 70.592 199.164 71.167 L 199.164 71.167 C 199.164 71.741 198.698 72.208 198.124 72.208 L 195.519 72.208 C 194.944 72.208 194.478 71.741 194.478 71.167 L 194.478 71.167 C 194.478 70.592 194.944 70.126 195.519 70.126 Z" style="stroke:none;fill:#FF4959;stroke-miterlimit:2;"/><path d="M 195.519 80.533 L 198.124 80.533 C 198.698 80.533 199.164 81 199.164 81.574 L 199.164 81.574 C 199.164 82.148 198.698 82.615 198.124 82.615 L 195.519 82.615 C 194.944 82.615 194.478 82.148 194.478 81.574 L 194.478 81.574 C 194.478 81 194.944 80.533 195.519 80.533 Z" style="stroke:none;fill:#FF4959;stroke-miterlimit:2;"/><path d="M 195.519 101.348 L 198.124 101.348 C 198.698 101.348 199.164 101.814 199.164 102.388 L 199.164 102.388 C 199.164 102.963 198.698 103.429 198.124 103.429 L 195.519 103.429 C 194.944 103.429 194.478 102.963 194.478 102.388 L 194.478 102.388 C 194.478 101.814 194.944 101.348 195.519 101.348 Z" style="stroke:none;fill:#FF4959;stroke-miterlimit:2;"/><path d="M 195.519 111.755 L 198.124 111.755 C 198.698 111.755 199.164 112.221 199.164 112.795 L 199.164 112.795 C 199.164 113.37 198.698 113.836 198.124 113.836 L 195.519 113.836 C 194.944 113.836 194.478 113.37 194.478 112.795 L 194.478 112.795 C 194.478 112.221 194.944 111.755 195.519 111.755 Z" style="stroke:none;fill:#FF4959;stroke-miterlimit:2;"/><path d="M 203.329 49.312 L 219.472 49.312 C 220.046 49.312 220.513 49.778 220.513 50.353 L 220.513 50.353 C 220.513 50.927 220.046 51.393 219.472 51.393 L 203.329 51.393 C 202.755 51.393 202.288 50.927 202.288 50.353 L 202.288 50.353 C 202.288 49.778 202.755 49.312 203.329 49.312 Z" style="stroke:none;fill:#FF4959;stroke-miterlimit:2;"/><path d="M 224.157 49.312 L 253.317 49.312 C 253.891 49.312 254.358 49.778 254.358 50.353 L 254.358 50.353 C 254.358 50.927 253.891 51.393 253.317 51.393 L 224.157 51.393 C 223.582 51.393 223.116 50.927 223.116 50.353 L 223.116 50.353 C 223.116 49.778 223.582 49.312 224.157 49.312 Z" style="stroke:none;fill:#FF4959;stroke-miterlimit:2;"/><path d="M 258.002 49.312 L 268.938 49.312 C 269.512 49.312 269.978 49.778 269.978 50.353 L 269.978 50.353 C 269.978 50.927 269.512 51.393 268.938 51.393 L 258.002 51.393 C 257.427 51.393 256.961 50.927 256.961 50.353 L 256.961 50.353 C 256.961 49.778 257.427 49.312 258.002 49.312 Z" style="stroke:none;fill:#FF4959;stroke-miterlimit:2;"/><path d="M 203.329 59.719 L 214.265 59.719 C 214.839 59.719 215.306 60.185 215.306 60.76 L 215.306 60.76 C 215.306 61.334 214.839 61.8 214.265 61.8 L 203.329 61.8 C 202.755 61.8 202.288 61.334 202.288 60.76 L 202.288 60.76 C 202.288 60.185 202.755 59.719 203.329 59.719 Z" style="stroke:none;fill:#FF4959;stroke-miterlimit:2;"/><path d="M 218.95 59.719 L 229.886 59.719 C 230.46 59.719 230.926 60.185 230.926 60.76 L 230.926 60.76 C 230.926 61.334 230.46 61.8 229.886 61.8 L 218.95 61.8 C 218.376 61.8 217.909 61.334 217.909 60.76 L 217.909 60.76 C 217.909 60.185 218.376 59.719 218.95 59.719 Z" style="stroke:none;fill:#FF4959;stroke-miterlimit:2;"/><path d="M 234.571 59.719 L 240.3 59.719 C 240.874 59.719 241.34 60.185 241.34 60.76 L 241.34 60.76 C 241.34 61.334 240.874 61.8 240.3 61.8 L 234.571 61.8 C 233.996 61.8 233.53 61.334 233.53 60.76 L 233.53 60.76 C 233.53 60.185 233.996 59.719 234.571 59.719 Z" style="stroke:none;fill:#FF4959;stroke-miterlimit:2;"/><path d="M 203.329 70.126 L 227.282 70.126 C 227.857 70.126 228.323 70.592 228.323 71.167 L 228.323 71.167 C 228.323 71.741 227.857 72.208 227.282 72.208 L 203.329 72.208 C 202.755 72.208 202.288 71.741 202.288 71.167 L 202.288 71.167 C 202.288 70.592 202.755 70.126 203.329 70.126 Z" style="stroke:none;fill:#FF4959;stroke-miterlimit:2;"/><path d="M 231.967 70.126 L 248.11 70.126 C 248.684 70.126 249.151 70.592 249.151 71.167 L 249.151 71.167 C 249.151 71.741 248.684 72.208 248.11 72.208 L 231.967 72.208 C 231.393 72.208 230.926 71.741 230.926 71.167 L 230.926 71.167 C 230.926 70.592 231.393 70.126 231.967 70.126 Z" style="stroke:none;fill:#FF4959;stroke-miterlimit:2;"/><path d="M 203.329 80.533 L 227.282 80.533 C 227.857 80.533 228.323 81 228.323 81.574 L 228.323 81.574 C 228.323 82.148 227.857 82.615 227.282 82.615 L 203.329 82.615 C 202.755 82.615 202.288 82.148 202.288 81.574 L 202.288 81.574 C 202.288 81 202.755 80.533 203.329 80.533 Z" style="stroke:none;fill:#FF4959;stroke-miterlimit:2;"/><path d="M 231.967 80.533 L 263.731 80.533 C 264.305 80.533 264.771 81 264.771 81.574 L 264.771 81.574 C 264.771 82.148 264.305 82.615 263.731 82.615 L 231.967 82.615 C 231.393 82.615 230.926 82.148 230.926 81.574 L 230.926 81.574 C 230.926 81 231.393 80.533 231.967 80.533 Z" style="stroke:none;fill:#FF4959;stroke-miterlimit:2;"/><path d="M 203.329 90.94 L 219.472 90.94 C 220.046 90.94 220.513 91.407 220.513 91.981 L 220.513 91.981 C 220.513 92.556 220.046 93.022 219.472 93.022 L 203.329 93.022 C 202.755 93.022 202.288 92.556 202.288 91.981 L 202.288 91.981 C 202.288 91.407 202.755 90.94 203.329 90.94 Z" style="stroke:none;fill:#FF4959;stroke-miterlimit:2;"/><path d="M 224.157 90.94 L 240.3 90.94 C 240.874 90.94 241.34 91.407 241.34 91.981 L 241.34 91.981 C 241.34 92.556 240.874 93.022 240.3 93.022 L 224.157 93.022 C 223.582 93.022 223.116 92.556 223.116 91.981 L 223.116 91.981 C 223.116 91.407 223.582 90.94 224.157 90.94 Z" style="stroke:none;fill:#FF4959;stroke-miterlimit:2;"/><path d="M 244.984 90.94 L 253.317 90.94 C 253.891 90.94 254.358 91.407 254.358 91.981 L 254.358 91.981 C 254.358 92.556 253.891 93.022 253.317 93.022 L 244.984 93.022 C 244.41 93.022 243.944 92.556 243.944 91.981 L 243.944 91.981 C 243.944 91.407 244.41 90.94 244.984 90.94 Z" style="stroke:none;fill:#FF4959;stroke-miterlimit:2;"/><path d="M 203.329 101.348 L 235.093 101.348 C 235.667 101.348 236.133 101.814 236.133 102.388 L 236.133 102.388 C 236.133 102.963 235.667 103.429 235.093 103.429 L 203.329 103.429 C 202.755 103.429 202.288 102.963 202.288 102.388 L 202.288 102.388 C 202.288 101.814 202.755 101.348 203.329 101.348 Z" style="stroke:none;fill:#FF4959;stroke-miterlimit:2;"/><path d="M 203.329 111.755 L 216.868 111.755 C 217.443 111.755 217.909 112.221 217.909 112.795 L 217.909 112.795 C 217.909 113.37 217.443 113.836 216.868 113.836 L 203.329 113.836 C 202.755 113.836 202.288 113.37 202.288 112.795 L 202.288 112.795 C 202.288 112.221 202.755 111.755 203.329 111.755 Z" style="stroke:none;fill:#FF4959;stroke-miterlimit:2;"/><mask id="_mask_d7yBCj8T2lSaWzzrFOcTvMlqYlqGmWCY" x="-200%" y="-200%" width="400%" height="400%"><rect x="-200%" y="-200%" width="400%" height="400%" style="fill:white;"/><path d=" M 414.991 96.664 L 557.659 96.664 L 557.659 198.143 C 557.659 202.163 554.4 205.419 550.374 205.419 L 422.277 205.419 C 418.256 205.419 414.991 202.157 414.991 198.143 L 414.991 96.664 Z " fill-rule="evenodd" fill="black" stroke="none"/></mask><path d=" M 414.991 96.664 L 557.659 96.664 L 557.659 198.143 C 557.659 202.163 554.4 205.419 550.374 205.419 L 422.277 205.419 C 418.256 205.419 414.991 202.157 414.991 198.143 L 414.991 96.664 Z " fill-rule="evenodd" fill="rgb(255,255,255)" mask="url(#_mask_d7yBCj8T2lSaWzzrFOcTvMlqYlqGmWCY)" vector-effect="non-scaling-stroke" stroke-width="4.163" stroke="rgb(255,73,89)" stroke-linejoin="miter" stroke-linecap="butt" stroke-miterlimit="4"/><path d=" M 414.991 96.664 L 557.659 96.664 L 557.659 198.143 C 557.659 202.163 554.4 205.419 550.374 205.419 L 422.277 205.419 C 418.256 205.419 414.991 202.157 414.991 198.143 L 414.991 96.664 Z " fill-rule="evenodd" fill="rgb(255,255,255)"/><mask id="_mask_V7aAfprkszUy7FEDvkRNV5cwE5btNiHr" x="-200%" y="-200%" width="400%" height="400%"><rect x="-200%" y="-200%" width="400%" height="400%" style="fill:white;"/><path d=" M 414.991 90.934 C 414.991 86.913 418.251 83.655 422.277 83.655 L 550.374 83.655 C 554.398 83.655 557.659 86.912 557.659 90.934 L 557.659 98.746 L 414.991 98.746 L 414.991 90.934 Z " fill-rule="evenodd" fill="black" stroke="none"/></mask><path d=" M 414.991 90.934 C 414.991 86.913 418.251 83.655 422.277 83.655 L 550.374 83.655 C 554.398 83.655 557.659 86.912 557.659 90.934 L 557.659 98.746 L 414.991 98.746 L 414.991 90.934 Z " fill-rule="evenodd" fill="rgb(255,255,255)" mask="url(#_mask_V7aAfprkszUy7FEDvkRNV5cwE5btNiHr)" vector-effect="non-scaling-stroke" stroke-width="4.163" stroke="rgb(255,73,89)" stroke-linejoin="miter" stroke-linecap="butt" stroke-miterlimit="4"/><path d=" M 414.991 90.934 C 414.991 86.913 418.251 83.655 422.277 83.655 L 550.374 83.655 C 554.398 83.655 557.659 86.912 557.659 90.934 L 557.659 98.746 L 414.991 98.746 L 414.991 90.934 Z " fill-rule="evenodd" fill="rgb(255,255,255)"/><ellipse vector-effect="non-scaling-stroke" cx="426.185617" cy="91.2005958" rx="2.3431096799999978" ry="2.341608739999998" fill="rgb(255,73,89)"/><ellipse vector-effect="non-scaling-stroke" cx="433.995982" cy="91.2005958" rx="2.3431096799999978" ry="2.341608739999998" fill="rgb(255,73,89)"/><ellipse vector-effect="non-scaling-stroke" cx="441.806348" cy="91.2005958" rx="2.3431096799999978" ry="2.341608739999998" fill="rgb(255,73,89)"/><ellipse vector-effect="non-scaling-stroke" cx="503.247891" cy="151.041708" rx="26.03455199999999" ry="26.017874900000002" fill="rgb(255,255,255)" stroke-width="2.342" stroke="rgb(255,73,89)" stroke-linejoin="miter" stroke-linecap="butt" stroke-miterlimit="4"/><mask id="_mask_qENUkkqYsPyfqu5EeZAGyHu8QTApVSWg" x="-200%" y="-200%" width="400%" height="400%"><rect x="-200%" y="-200%" width="400%" height="400%" style="fill:white;"/><path d=" M 500.383 121.902 L 500.383 128.146 L 506.633 128.146 L 506.633 121.902 L 500.383 121.902 Z " fill-rule="evenodd" fill="black" stroke="none"/></mask><path d=" M 500.383 121.902 L 500.383 128.146 L 506.633 128.146 L 506.633 121.902 L 500.383 121.902 Z " fill-rule="evenodd" fill="rgb(255,255,255)" mask="url(#_mask_qENUkkqYsPyfqu5EeZAGyHu8QTApVSWg)" vector-effect="non-scaling-stroke" stroke-width="4.163" stroke="rgb(255,73,89)" stroke-linejoin="miter" stroke-linecap="butt" stroke-miterlimit="4"/><path d=" M 500.383 121.902 L 500.383 128.146 L 506.633 128.146 L 506.633 121.902 L 500.383 121.902 Z " fill-rule="evenodd" fill="rgb(255,255,255)"/><mask id="_mask_xmioX0tinJaKGdcnyE8hyIZxyhzCL4MM" x="-200%" y="-200%" width="400%" height="400%"><rect x="-200%" y="-200%" width="400%" height="400%" style="fill:white;"/><path d=" M 500.123 173.937 L 500.123 180.182 L 506.373 180.182 L 506.373 173.937 L 500.123 173.937 Z " fill-rule="evenodd" fill="black" stroke="none"/></mask><path d=" M 500.123 173.937 L 500.123 180.182 L 506.373 180.182 L 506.373 173.937 L 500.123 173.937 Z " fill-rule="evenodd" fill="rgb(255,255,255)" mask="url(#_mask_xmioX0tinJaKGdcnyE8hyIZxyhzCL4MM)" vector-effect="non-scaling-stroke" stroke-width="4.163" stroke="rgb(255,73,89)" stroke-linejoin="miter" stroke-linecap="butt" stroke-miterlimit="4"/><path d=" M 500.123 173.937 L 500.123 180.182 L 506.373 180.182 L 506.373 173.937 L 500.123 173.937 Z " fill-rule="evenodd" fill="rgb(255,255,255)"/><mask id="_mask_CVLVC8LVcEn9cOdlPg0AqjmF7My2Pn8h" x="-200%" y="-200%" width="400%" height="400%"><rect x="-200%" y="-200%" width="400%" height="400%" style="fill:white;"/><path d=" M 474.089 148.18 L 474.089 154.424 L 480.338 154.424 L 480.338 148.18 L 474.089 148.18 Z " fill-rule="evenodd" fill="black" stroke="none"/></mask><path d=" M 474.089 148.18 L 474.089 154.424 L 480.338 154.424 L 480.338 148.18 L 474.089 148.18 Z " fill-rule="evenodd" fill="rgb(255,255,255)" mask="url(#_mask_CVLVC8LVcEn9cOdlPg0AqjmF7My2Pn8h)" vector-effect="non-scaling-stroke" stroke-width="4.163" stroke="rgb(255,73,89)" stroke-linejoin="miter" stroke-linecap="butt" stroke-miterlimit="4"/><path d=" M 474.089 148.18 L 474.089 154.424 L 480.338 154.424 L 480.338 148.18 L 474.089 148.18 Z " fill-rule="evenodd" fill="rgb(255,255,255)"/><mask id="_mask_EHeW0BpdowWMM2ayYfzSqwpS2FvOqxVT" x="-200%" y="-200%" width="400%" height="400%"><rect x="-200%" y="-200%" width="400%" height="400%" style="fill:white;"/><path d=" M 525.897 148.18 L 525.897 154.424 L 532.147 154.424 L 532.147 148.18 L 525.897 148.18 Z " fill-rule="evenodd" fill="black" stroke="none"/></mask><path d=" M 525.897 148.18 L 525.897 154.424 L 532.147 154.424 L 532.147 148.18 L 525.897 148.18 Z " fill-rule="evenodd" fill="rgb(255,255,255)" mask="url(#_mask_EHeW0BpdowWMM2ayYfzSqwpS2FvOqxVT)" vector-effect="non-scaling-stroke" stroke-width="4.163" stroke="rgb(255,73,89)" stroke-linejoin="miter" stroke-linecap="butt" stroke-miterlimit="4"/><path d=" M 525.897 148.18 L 525.897 154.424 L 532.147 154.424 L 532.147 148.18 L 525.897 148.18 Z " fill-rule="evenodd" fill="rgb(255,255,255)"/><mask id="_mask_UBBbLuG7WWCwjoF9HYgOBCeAiKWSJXWO" x="-200%" y="-200%" width="400%" height="400%"><rect x="-200%" y="-200%" width="400%" height="400%" style="fill:white;"/><line x1="529.282" y1="127.626" x2="529.282" y2="147.139" fill="black" stroke="none"/></mask><line x1="529.282" y1="127.626" x2="529.282" y2="147.139" mask="url(#_mask_UBBbLuG7WWCwjoF9HYgOBCeAiKWSJXWO)" vector-effect="non-scaling-stroke" stroke-width="4.163" stroke="rgb(255,73,89)" stroke-linejoin="miter" stroke-linecap="square" stroke-miterlimit="4"/><mask id="_mask_BCLJNRdxsRXNUALfOamosTY0kTkL66oB" x="-200%" y="-200%" width="400%" height="400%"><rect x="-200%" y="-200%" width="400%" height="400%" style="fill:white;"/><line x1="529.282" y1="154.944" x2="529.282" y2="174.458" fill="black" stroke="none"/></mask><line x1="529.282" y1="154.944" x2="529.282" y2="174.458" mask="url(#_mask_BCLJNRdxsRXNUALfOamosTY0kTkL66oB)" vector-effect="non-scaling-stroke" stroke-width="4.163" stroke="rgb(255,73,89)" stroke-linejoin="miter" stroke-linecap="square" stroke-miterlimit="4"/><ellipse vector-effect="non-scaling-stroke" cx="529.282443" cy="126.845084" rx="3.124146239999959" ry="3.1221449899999953" fill="rgb(255,73,89)"/><ellipse vector-effect="non-scaling-stroke" cx="529.282443" cy="176.279047" rx="3.124146239999959" ry="3.1221449900000096" fill="rgb(255,73,89)"/><g><path d="M 443.626 119.56 L 453.525 119.56 C 455.248 119.56 456.647 120.959 456.647 122.682 L 456.647 132.569 C 456.647 134.292 455.248 135.691 453.525 135.691 L 443.626 135.691 C 441.903 135.691 440.504 134.292 440.504 132.569 L 440.504 122.682 C 440.504 120.959 441.903 119.56 443.626 119.56 Z" style="stroke:none;fill:#FFFFFF;stroke-miterlimit:2;"/><path d="M 443.626 119.56 L 453.525 119.56 C 455.248 119.56 456.647 120.959 456.647 122.682 L 456.647 132.569 C 456.647 134.292 455.248 135.691 453.525 135.691 L 443.626 135.691 C 441.903 135.691 440.504 134.292 440.504 132.569 L 440.504 122.682 C 440.504 120.959 441.903 119.56 443.626 119.56 Z" style="fill:none;stroke:#FF4959;stroke-width:2.08142999;stroke-miterlimit:2;"/><path d="M 443.626 142.976 L 453.525 142.976 C 455.248 142.976 456.647 144.375 456.647 146.098 L 456.647 155.985 C 456.647 157.708 455.248 159.107 453.525 159.107 L 443.626 159.107 C 441.903 159.107 440.504 157.708 440.504 155.985 L 440.504 146.098 C 440.504 144.375 441.903 142.976 443.626 142.976 Z" style="stroke:none;fill:#FFFFFF;stroke-miterlimit:2;"/><path d="M 443.626 142.976 L 453.525 142.976 C 455.248 142.976 456.647 144.375 456.647 146.098 L 456.647 155.985 C 456.647 157.708 455.248 159.107 453.525 159.107 L 443.626 159.107 C 441.903 159.107 440.504 157.708 440.504 155.985 L 440.504 146.098 C 440.504 144.375 441.903 142.976 443.626 142.976 Z" style="fill:none;stroke:#FF4959;stroke-width:2.08142999;stroke-miterlimit:2;"/><path d="M 443.626 166.392 L 453.525 166.392 C 455.248 166.392 456.647 167.791 456.647 169.514 L 456.647 179.401 C 456.647 181.124 455.248 182.523 453.525 182.523 L 443.626 182.523 C 441.903 182.523 440.504 181.124 440.504 179.401 L 440.504 169.514 C 440.504 167.791 441.903 166.392 443.626 166.392 Z" style="stroke:none;fill:#FFFFFF;stroke-miterlimit:2;"/><path d="M 443.626 166.392 L 453.525 166.392 C 455.248 166.392 456.647 167.791 456.647 169.514 L 456.647 179.401 C 456.647 181.124 455.248 182.523 453.525 182.523 L 443.626 182.523 C 441.903 182.523 440.504 181.124 440.504 179.401 L 440.504 169.514 C 440.504 167.791 441.903 166.392 443.626 166.392 Z" style="fill:none;stroke:#FF4959;stroke-width:2.08142999;stroke-miterlimit:2;"/></g><ellipse vector-effect="non-scaling-stroke" cx="632.379269" cy="238.982125" rx="15.620731200000023" ry="15.610724900000008" fill="rgb(255,255,255)" stroke-width="2.081" stroke="rgb(255,73,89)" stroke-linejoin="miter" stroke-linecap="butt" stroke-miterlimit="4"/><ellipse vector-effect="non-scaling-stroke" cx="632.379269" cy="238.982125" rx="9.112093210000012" ry="9.106256209999998" fill="rgb(255,255,255)" stroke-width="2.081" stroke="rgb(255,73,89)" stroke-linejoin="miter" stroke-linecap="butt" stroke-miterlimit="4"/><ellipse vector-effect="non-scaling-stroke" cx="611.551627" cy="215.305859" rx="5.206910409999978" ry="5.203574980000013" fill="rgb(255,255,255)" stroke-width="2.081" stroke="rgb(255,73,89)" stroke-linejoin="miter" stroke-linecap="butt" stroke-miterlimit="4"/><mask id="_mask_7YSwdLyD81oSSexvxNMyXmh8GEc38d78" x="-200%" y="-200%" width="400%" height="400%"><rect x="-200%" y="-200%" width="400%" height="400%" style="fill:white;"/><path d=" M 588.64 214.005 C 588.065 214.005 587.599 214.471 587.599 215.046 L 587.599 258.756 C 587.599 261.63 589.929 263.959 592.803 263.959 L 628.72 263.959 C 631.594 263.959 633.924 261.63 633.924 258.756 L 633.924 215.046 C 633.924 214.471 633.458 214.005 632.883 214.005 L 588.64 214.005 Z " fill-rule="evenodd" fill="black" stroke="none"/></mask><path d=" M 588.64 214.005 C 588.065 214.005 587.599 214.471 587.599 215.046 L 587.599 258.756 C 587.599 261.63 589.929 263.959 592.803 263.959 L 628.72 263.959 C 631.594 263.959 633.924 261.63 633.924 258.756 L 633.924 215.046 C 633.924 214.471 633.458 214.005 632.883 214.005 L 588.64 214.005 Z " fill-rule="evenodd" fill="rgb(255,255,255)" mask="url(#_mask_7YSwdLyD81oSSexvxNMyXmh8GEc38d78)" vector-effect="non-scaling-stroke" stroke-width="4.163" stroke="rgb(255,73,89)" stroke-linejoin="miter" stroke-linecap="butt" stroke-miterlimit="4"/><path d=" M 588.64 214.005 C 588.065 214.005 587.599 214.471 587.599 215.046 L 587.599 258.756 C 587.599 261.63 589.929 263.959 592.803 263.959 L 628.72 263.959 C 631.594 263.959 633.924 261.63 633.924 258.756 L 633.924 215.046 C 633.924 214.471 633.458 214.005 632.883 214.005 L 588.64 214.005 Z " fill-rule="evenodd" fill="rgb(255,255,255)"/><path d="M 612.851 228.055 L 620.146 228.055 C 621.869 228.055 623.268 229.454 623.268 231.177 L 623.268 241.584 C 623.268 243.307 621.869 244.706 620.146 244.706 L 612.851 244.706 C 611.128 244.706 609.729 243.307 609.729 241.584 L 609.729 231.177 C 609.729 229.454 611.128 228.055 612.851 228.055 Z" style="stroke:none;fill:#FFFFFF;stroke-miterlimit:2;"/><path d="M 612.851 228.055 L 620.146 228.055 C 621.869 228.055 623.268 229.454 623.268 231.177 L 623.268 241.584 C 623.268 243.307 621.869 244.706 620.146 244.706 L 612.851 244.706 C 611.128 244.706 609.729 243.307 609.729 241.584 L 609.729 231.177 C 609.729 229.454 611.128 228.055 612.851 228.055 Z" style="fill:none;stroke:#FF4959;stroke-width:2.08142999;stroke-miterlimit:2;"/><mask id="_mask_0tZMpcCXiGl3ELf6JhzjIl1gIrMg9Prk" x="-200%" y="-200%" width="400%" height="400%"><rect x="-200%" y="-200%" width="400%" height="400%" style="fill:white;"/><line x1="616.368" y1="214.395" x2="616.368" y2="226.233" fill="black" stroke="none"/></mask><line x1="616.368" y1="214.395" x2="616.368" y2="226.233" mask="url(#_mask_0tZMpcCXiGl3ELf6JhzjIl1gIrMg9Prk)" vector-effect="non-scaling-stroke" stroke-width="4.163" stroke="rgb(255,73,89)" stroke-linejoin="miter" stroke-linecap="square" stroke-miterlimit="4"/><mask id="_mask_83RKIgfzicvZlZFGAugWbWFm5Rmeoamv" x="-200%" y="-200%" width="400%" height="400%"><rect x="-200%" y="-200%" width="400%" height="400%" style="fill:white;"/><path d=" M 557.92 263.699 C 566.548 263.699 573.541 263.699 573.541 263.699 C 573.541 255.078 566.548 248.088 557.92 248.088 C 549.293 248.088 542.3 255.078 542.3 263.699 C 542.3 263.699 549.293 263.699 557.92 263.699 Z " fill-rule="evenodd" fill="black" stroke="none"/></mask><path d=" M 557.92 263.699 C 566.548 263.699 573.541 263.699 573.541 263.699 C 573.541 255.078 566.548 248.088 557.92 248.088 C 549.293 248.088 542.3 255.078 542.3 263.699 C 542.3 263.699 549.293 263.699 557.92 263.699 Z " fill-rule="evenodd" fill="rgb(255,255,255)" mask="url(#_mask_83RKIgfzicvZlZFGAugWbWFm5Rmeoamv)" vector-effect="non-scaling-stroke" stroke-width="4.163" stroke="rgb(255,73,89)" stroke-linejoin="miter" stroke-linecap="butt" stroke-miterlimit="4"/><path d=" M 557.92 263.699 C 566.548 263.699 573.541 263.699 573.541 263.699 C 573.541 255.078 566.548 248.088 557.92 248.088 C 549.293 248.088 542.3 255.078 542.3 263.699 C 542.3 263.699 549.293 263.699 557.92 263.699 Z " fill-rule="evenodd" fill="rgb(255,255,255)"/><path d="M 557.92 247.568 L 557.92 247.568 C 558.495 247.568 558.962 248.035 558.962 248.609 L 558.962 249.909 C 558.962 250.484 558.495 250.95 557.92 250.95 L 557.92 250.95 C 557.346 250.95 556.879 250.484 556.879 249.909 L 556.879 248.609 C 556.879 248.035 557.346 247.568 557.92 247.568 Z" style="stroke:none;fill:#FF4959;stroke-miterlimit:2;"/><mask id="_mask_5zxTPi2zSPD6i57CgbR3s4nTQBKFuUEC" x="-200%" y="-200%" width="400%" height="400%"><rect x="-200%" y="-200%" width="400%" height="400%" style="fill:white;"/><path d=" M 16.391 232.998 C 7.913 232.998 1.041 239.871 1.041 248.349 C 1.041 256.827 7.913 263.699 16.391 263.699 L 79.407 263.699 C 80.269 263.699 80.968 263 80.968 262.138 L 80.968 259.722 C 80.968 258.63 80.124 257.723 79.034 257.646 C 71.88 257.138 68.081 253.995 68.081 248.349 C 68.081 242.702 71.88 239.559 79.034 239.051 C 80.124 238.974 80.968 238.067 80.968 236.975 L 80.968 234.559 C 80.968 233.697 80.269 232.998 79.407 232.998 L 16.391 232.998 Z " fill-rule="evenodd" fill="black" stroke="none"/></mask><path d=" M 16.391 232.998 C 7.913 232.998 1.041 239.871 1.041 248.349 C 1.041 256.827 7.913 263.699 16.391 263.699 L 79.407 263.699 C 80.269 263.699 80.968 263 80.968 262.138 L 80.968 259.722 C 80.968 258.63 80.124 257.723 79.034 257.646 C 71.88 257.138 68.081 253.995 68.081 248.349 C 68.081 242.702 71.88 239.559 79.034 239.051 C 80.124 238.974 80.968 238.067 80.968 236.975 L 80.968 234.559 C 80.968 233.697 80.269 232.998 79.407 232.998 L 16.391 232.998 Z " fill-rule="evenodd" fill="rgb(255,255,255)" mask="url(#_mask_5zxTPi2zSPD6i57CgbR3s4nTQBKFuUEC)" vector-effect="non-scaling-stroke" stroke-width="4.163" stroke="rgb(255,73,89)" stroke-linejoin="miter" stroke-linecap="butt" stroke-miterlimit="4"/><path d=" M 16.391 232.998 C 7.913 232.998 1.041 239.871 1.041 248.349 C 1.041 256.827 7.913 263.699 16.391 263.699 L 79.407 263.699 C 80.269 263.699 80.968 263 80.968 262.138 L 80.968 259.722 C 80.968 258.63 80.124 257.723 79.034 257.646 C 71.88 257.138 68.081 253.995 68.081 248.349 C 68.081 242.702 71.88 239.559 79.034 239.051 C 80.124 238.974 80.968 238.067 80.968 236.975 L 80.968 234.559 C 80.968 233.697 80.269 232.998 79.407 232.998 L 16.391 232.998 Z " fill-rule="evenodd" fill="rgb(255,255,255)"/><mask id="_mask_DbL9grb1LnEj0lPcTLPHhdGCdzCvoQXM" x="-200%" y="-200%" width="400%" height="400%"><rect x="-200%" y="-200%" width="400%" height="400%" style="fill:white;"/><path d=" M 80.186 258.3 C 80.186 258.552 79.982 258.756 79.73 258.756 L 79.73 258.756 L 72.353 258.756 L 16.141 258.756 C 10.39 258.756 5.728 254.096 5.728 248.349 C 5.728 242.601 10.39 237.941 16.141 237.941 L 72.353 237.941 L 79.73 237.941 L 79.73 237.941 C 79.982 237.941 80.186 238.146 80.186 238.397" fill-rule="evenodd" fill="black" stroke="none"/></mask><path d=" M 80.186 258.3 C 80.186 258.552 79.982 258.756 79.73 258.756 L 79.73 258.756 L 72.353 258.756 L 16.141 258.756 C 10.39 258.756 5.728 254.096 5.728 248.349 C 5.728 242.601 10.39 237.941 16.141 237.941 L 72.353 237.941 L 79.73 237.941 L 79.73 237.941 C 79.982 237.941 80.186 238.146 80.186 238.397" fill-rule="evenodd" fill="none" mask="url(#_mask_DbL9grb1LnEj0lPcTLPHhdGCdzCvoQXM)" vector-effect="non-scaling-stroke" stroke-width="4.163" stroke="rgb(255,73,89)" stroke-linejoin="miter" stroke-linecap="butt" stroke-miterlimit="4"/><path d=" M 80.186 258.3 C 80.186 258.552 79.982 258.756 79.73 258.756 L 79.73 258.756 L 72.353 258.756 L 16.141 258.756 C 10.39 258.756 5.728 254.096 5.728 248.349 C 5.728 242.601 10.39 237.941 16.141 237.941 L 72.353 237.941 L 79.73 237.941 L 79.73 237.941 C 79.982 237.941 80.186 238.146 80.186 238.397" fill-rule="evenodd" fill="none"/><path d="M 15.099 243.926 L 67.691 243.926 C 68.265 243.926 68.731 244.392 68.731 244.966 L 68.731 244.966 C 68.731 245.541 68.265 246.007 67.691 246.007 L 15.099 246.007 C 14.525 246.007 14.059 245.541 14.059 244.966 L 14.059 244.966 C 14.059 244.392 14.525 243.926 15.099 243.926 Z" style="stroke:none;fill:#FF4959;stroke-miterlimit:2;"/><path d="M 15.099 243.926 L 67.691 243.926 C 68.265 243.926 68.731 244.392 68.731 244.966 L 68.731 244.966 C 68.731 245.541 68.265 246.007 67.691 246.007 L 15.099 246.007 C 14.525 246.007 14.059 245.541 14.059 244.966 L 14.059 244.966 C 14.059 244.392 14.525 243.926 15.099 243.926 Z" style="fill:none;stroke:#FF4959;stroke-width:1;stroke-miterlimit:2;"/><path d="M 15.099 250.43 L 67.691 250.43 C 68.265 250.43 68.731 250.896 68.731 251.471 L 68.731 251.471 C 68.731 252.045 68.265 252.511 67.691 252.511 L 15.099 252.511 C 14.525 252.511 14.059 252.045 14.059 251.471 L 14.059 251.471 C 14.059 250.896 14.525 250.43 15.099 250.43 Z" style="stroke:none;fill:#FF4959;stroke-miterlimit:2;"/><path d="M 15.099 250.43 L 67.691 250.43 C 68.265 250.43 68.731 250.896 68.731 251.471 L 68.731 251.471 C 68.731 252.045 68.265 252.511 67.691 252.511 L 15.099 252.511 C 14.525 252.511 14.059 252.045 14.059 251.471 L 14.059 251.471 C 14.059 250.896 14.525 250.43 15.099 250.43 Z" style="fill:none;stroke:#FF4959;stroke-width:1;stroke-miterlimit:2;"/><path d=" M 65.127 181.055 C 63.849 179.92 62.571 178.785 61.294 177.65 C 59.257 175.843 57.227 174.03 55.191 172.223 C 54.724 171.812 54.258 171.395 53.797 170.983 C 53.797 171.528 53.797 172.078 53.797 172.622 C 55.074 171.487 56.352 170.352 57.63 169.217 C 59.666 167.41 61.696 165.597 63.732 163.79 C 64.199 163.379 64.666 162.962 65.127 162.551 C 65.582 162.145 65.576 161.317 65.127 160.912 C 64.642 160.466 63.966 160.477 63.475 160.912 C 62.198 162.047 60.92 163.182 59.642 164.317 C 57.606 166.124 55.576 167.937 53.54 169.744 C 53.073 170.155 52.607 170.572 52.146 170.983 C 51.696 171.383 51.696 172.223 52.146 172.622 C 53.423 173.758 54.701 174.893 55.979 176.028 C 58.015 177.835 60.045 179.648 62.081 181.455 C 62.548 181.866 63.015 182.283 63.475 182.694 C 63.931 183.1 64.683 183.175 65.127 182.694 C 65.535 182.254 65.611 181.489 65.127 181.055 L 65.127 181.055 Z " fill="rgb(255,73,89)"/><path d=" M 84.583 162.554 C 85.86 163.689 87.138 164.824 88.416 165.959 C 90.452 167.766 92.482 169.579 94.518 171.386 C 94.985 171.797 95.452 172.214 95.912 172.625 C 95.912 172.081 95.912 171.531 95.912 170.986 C 94.635 172.121 93.357 173.256 92.079 174.392 C 90.043 176.199 88.013 178.011 85.977 179.818 C 85.51 180.23 85.043 180.647 84.583 181.058 C 84.128 181.463 84.133 182.291 84.583 182.697 C 85.067 183.143 85.744 183.131 86.234 182.697 C 87.511 181.562 88.789 180.427 90.067 179.291 C 92.103 177.484 94.133 175.672 96.169 173.865 C 96.636 173.453 97.103 173.036 97.563 172.625 C 98.013 172.226 98.013 171.386 97.563 170.986 C 96.286 169.851 95.008 168.716 93.73 167.581 C 91.694 165.774 89.664 163.961 87.628 162.154 C 87.161 161.743 86.695 161.326 86.234 160.914 C 85.779 160.509 85.026 160.434 84.583 160.914 C 84.174 161.355 84.098 162.119 84.583 162.554 L 84.583 162.554 Z " fill="rgb(255,73,89)"/><path d=" M 70.694 187.876 C 71.044 186.833 71.388 185.791 71.738 184.742 C 72.572 182.235 73.407 179.733 74.241 177.225 C 75.244 174.202 76.248 171.184 77.257 168.161 C 78.126 165.549 78.996 162.937 79.865 160.325 C 80.279 159.056 80.746 157.794 81.131 156.508 C 81.137 156.491 81.143 156.473 81.148 156.456 C 81.341 155.883 80.927 155.164 80.332 155.031 C 79.69 154.886 79.101 155.222 78.896 155.842 C 78.546 156.885 78.202 157.927 77.852 158.975 C 77.018 161.483 76.184 163.985 75.349 166.493 C 74.346 169.516 73.342 172.534 72.333 175.557 C 71.464 178.169 70.595 180.781 69.725 183.393 C 69.311 184.656 68.844 185.918 68.459 187.204 C 68.453 187.221 68.448 187.239 68.442 187.256 C 68.249 187.829 68.663 188.548 69.259 188.681 C 69.9 188.826 70.49 188.49 70.694 187.876 L 70.694 187.876 Z " fill="rgb(255,73,89)"/></g></g></svg>