<?xml version="1.0" encoding="UTF-8" standalone="no"?><!-- Generator: Gravit.io --><svg xmlns="http://www.w3.org/2000/svg" xmlns:xlink="http://www.w3.org/1999/xlink" style="isolation:isolate" viewBox="0 0 512 512" width="512pt" height="512pt"><defs><clipPath id="_clipPath_ruXm8m6CAZ82zs9roIYqS0UtddLFoRgM"><rect width="512" height="512"/></clipPath></defs><g clip-path="url(#_clipPath_ruXm8m6CAZ82zs9roIYqS0UtddLFoRgM)"><path d=" M 256.096 134.03 L 64.136 287.834 C 64.136 288.051 64.081 288.371 63.969 288.806 C 63.858 289.238 63.8 289.551 63.8 289.774 L 63.8 445.517 C 63.8 451.14 65.915 456.014 70.144 460.117 C 74.373 464.223 79.38 466.289 85.167 466.289 L 213.36 466.289 L 213.36 341.692 L 298.835 341.692 L 298.835 466.294 L 427.027 466.294 C 432.812 466.294 437.826 464.232 442.048 460.117 C 446.278 456.018 448.4 451.141 448.4 445.517 L 448.4 289.774 C 448.4 288.911 448.279 288.258 448.064 287.834 L 256.096 134.03 Z " fill="rgb(255,69,69)"/><path d=" M 507.78 252.79 L 438.466 193.737 L 438.466 61.353 C 438.466 58.327 437.517 55.838 435.612 53.89 C 433.723 51.944 431.295 50.971 428.336 50.971 L 367.565 50.971 C 364.61 50.971 362.183 51.944 360.282 53.89 C 358.385 55.838 357.437 58.328 357.437 61.353 L 357.437 124.624 L 280.208 58.43 C 273.463 52.806 265.443 49.994 256.157 49.994 C 246.872 49.994 238.853 52.806 232.102 58.43 L 4.517 252.79 C 2.407 254.518 1.251 256.843 1.036 259.763 C 0.822 262.682 1.559 265.231 3.249 267.393 L 22.873 291.404 C 24.564 293.35 26.777 294.539 29.521 294.975 C 32.054 295.193 34.587 294.434 37.12 292.704 L 256.15 105.48 L 475.182 292.703 C 476.874 294.212 479.086 294.966 481.83 294.966 L 482.781 294.966 C 485.52 294.538 487.729 293.34 489.428 291.399 L 509.054 267.391 C 510.742 265.225 511.481 262.681 511.262 259.759 C 511.046 256.846 509.885 254.521 507.78 252.79 Z " fill="rgb(255,69,69)"/></g></svg>