<?xml version="1.0" encoding="UTF-8" standalone="no"?><!-- Generator: Gravit.io --><svg xmlns="http://www.w3.org/2000/svg" xmlns:xlink="http://www.w3.org/1999/xlink" style="isolation:isolate" viewBox="0 0 512 512" width="512pt" height="512pt"><defs><clipPath id="_clipPath_rRD1zZ078n2skEuWwDzqe2GL91ybzJ6U"><rect width="512" height="512"/></clipPath></defs><g clip-path="url(#_clipPath_rRD1zZ078n2skEuWwDzqe2GL91ybzJ6U)"><path d=" M 451.921 195.66 L 271.718 195.66 C 271.718 142.468 292.157 139.697 325.99 135.078 C 361.266 130.273 409.561 123.683 409.561 40.909 C 409.561 31.835 402.08 24.485 392.843 24.485 C 383.606 24.485 376.125 31.835 376.125 40.909 C 376.125 95.086 355.519 97.878 321.372 102.538 C 286.305 107.322 238.282 113.871 238.282 195.66 L 58.079 195.66 C 25.457 195.66 -1 221.65 -1 253.697 L -1 408.448 C -1 440.474 25.457 466.485 58.079 466.485 L 451.921 466.485 C 484.543 466.485 511 440.494 511 408.448 L 511 253.697 C 511 221.65 484.543 195.66 451.921 195.66 Z  M 353.471 253.697 L 392.864 253.697 L 392.864 292.395 L 353.471 292.395 L 353.471 253.697 Z  M 412.529 311.734 L 412.529 350.432 L 373.136 350.432 L 373.136 311.734 L 412.529 311.734 Z  M 294.393 253.697 L 333.785 253.697 L 333.785 292.395 L 294.393 292.395 L 294.393 253.697 Z  M 353.471 311.734 L 353.471 350.432 L 314.079 350.432 L 314.079 311.734 L 353.471 311.734 Z  M 235.314 253.697 L 274.707 253.697 L 274.707 292.395 L 235.314 292.395 L 235.314 253.697 Z  M 294.393 311.734 L 294.393 350.432 L 255 350.432 L 255 311.734 L 294.393 311.734 Z  M 176.236 253.697 L 215.628 253.697 L 215.628 292.395 L 176.236 292.395 L 176.236 253.697 Z  M 235.314 311.734 L 235.314 350.432 L 195.921 350.432 L 195.921 311.734 L 235.314 311.734 Z  M 117.157 253.697 L 156.55 253.697 L 156.55 292.395 L 117.157 292.395 L 117.157 253.697 Z  M 176.236 311.734 L 176.236 350.432 L 136.843 350.432 L 136.843 311.734 L 176.236 311.734 Z  M 58.079 253.697 L 97.471 253.697 L 97.471 292.395 L 58.079 292.395 L 58.079 253.697 Z  M 117.157 311.734 L 117.157 350.432 L 77.764 350.432 L 77.764 311.734 L 117.157 311.734 Z  M 97.471 408.448 L 58.079 408.448 L 58.079 369.75 L 97.471 369.75 L 97.471 408.448 Z  M 392.843 408.448 L 117.157 408.448 L 117.157 369.75 L 392.843 369.75 L 392.843 408.448 Z  M 451.921 408.448 L 412.529 408.448 L 412.529 369.75 L 451.921 369.75 L 451.921 408.448 Z  M 451.921 292.374 L 412.529 292.374 L 412.529 253.676 L 451.921 253.676 L 451.921 292.374 Z " fill="rgb(255,69,69)"/></g></svg>