<?xml version="1.0" encoding="UTF-8" standalone="no"?><!-- Generator: Gravit.io --><svg xmlns="http://www.w3.org/2000/svg" xmlns:xlink="http://www.w3.org/1999/xlink" style="isolation:isolate" viewBox="0 0 250 250" width="250pt" height="250pt"><defs><clipPath id="_clipPath_7bCEx30AAozcdHZdj0d8RxlIvT4NEL60"><rect width="250" height="250"/></clipPath></defs><g clip-path="url(#_clipPath_7bCEx30AAozcdHZdj0d8RxlIvT4NEL60)"><g><path d=" M 36 0 L 214 0 C 233.869 0 250 16.131 250 36 L 250 214 C 250 233.869 233.869 250 214 250 L 36 250 C 16.131 250 0 233.869 0 214 L 0 36 C 0 16.131 16.131 0 36 0 Z " fill="#4ecca3"/><path d=" M 87.943 99.821 L 87.943 99.821 L 87.943 99.821 Q 87.943 105.556 87.168 112.841 L 87.168 112.841 L 87.168 112.841 Q 98.483 111.291 104.683 110.826 L 104.683 110.826 L 104.683 110.826 Q 109.798 85.561 109.798 71.611 L 109.798 71.611 L 109.643 69.441 L 109.643 69.441 Q 124.833 64.636 139.868 64.636 L 139.868 64.636 L 139.868 64.636 Q 140.488 65.566 140.488 69.131 L 140.488 69.131 L 140.488 69.131 Q 140.488 77.966 133.203 110.516 L 133.203 110.516 L 133.203 110.516 Q 143.743 111.136 154.283 113.306 L 154.283 113.306 L 154.283 115.166 L 154.283 115.166 Q 154.283 119.041 153.818 120.514 L 153.818 120.514 L 153.818 120.514 Q 153.353 121.986 153.198 122.761 L 153.198 122.761 L 153.198 122.761 Q 153.043 123.536 152.423 124.544 L 152.423 124.544 L 152.423 124.544 Q 151.803 125.551 151.648 126.016 L 151.648 126.016 L 151.648 126.016 Q 151.028 127.566 149.943 128.651 L 149.943 128.651 L 149.943 128.651 Q 139.093 125.551 130.258 124.311 L 130.258 124.311 L 130.258 124.311 Q 125.608 146.476 125.608 155.621 L 125.608 155.621 L 125.608 155.621 Q 125.608 158.256 126.073 159.264 L 126.073 159.264 L 126.073 159.264 Q 126.538 160.271 128.786 160.271 L 128.786 160.271 L 128.786 160.271 Q 131.033 160.271 135.218 158.721 L 135.218 158.721 L 138.628 166.626 L 138.628 166.626 Q 122.818 176.546 110.573 176.546 L 110.573 176.546 L 110.573 176.546 Q 95.228 176.546 95.228 161.201 L 95.228 161.201 L 95.228 161.201 Q 95.228 153.296 102.048 123.071 L 102.048 123.071 L 102.048 123.071 Q 93.833 123.536 85.463 124.931 L 85.463 124.931 L 85.463 124.931 Q 80.968 147.561 70.273 163.216 L 70.273 163.216 L 70.273 163.216 Q 64.848 171.276 57.331 175.849 L 57.331 175.849 L 57.331 175.849 Q 49.813 180.421 40.436 180.421 L 40.436 180.421 L 40.436 180.421 Q 31.058 180.421 25.168 174.299 L 25.168 174.299 L 25.168 174.299 Q 19.278 168.176 19.278 158.411 L 19.278 158.411 L 19.278 158.411 Q 19.278 148.646 28.888 137.564 L 28.888 137.564 L 28.888 137.564 Q 38.498 126.481 57.873 119.041 L 57.873 119.041 L 57.873 119.041 Q 59.423 109.741 59.423 100.054 L 59.423 100.054 L 59.423 100.054 Q 59.423 90.366 58.028 86.801 L 58.028 86.801 L 58.028 86.801 Q 56.633 83.236 52.448 83.236 L 52.448 83.236 L 52.448 83.236 Q 45.938 83.236 33.073 92.381 L 33.073 92.381 L 27.183 84.321 L 27.183 84.321 Q 47.023 66.651 65.313 66.651 L 65.313 66.651 L 65.313 66.651 Q 78.023 66.651 82.983 75.409 L 82.983 75.409 L 82.983 75.409 Q 87.943 84.166 87.943 99.821 Z  M 31.213 157.016 L 31.213 157.016 L 31.213 157.016 Q 31.213 160.271 33.151 162.751 L 33.151 162.751 L 33.151 162.751 Q 35.088 165.231 38.188 165.231 L 38.188 165.231 L 38.188 165.231 Q 43.923 165.231 48.883 155.776 L 48.883 155.776 L 48.883 155.776 Q 53.843 146.321 56.478 131.441 L 56.478 131.441 L 56.478 131.441 Q 45.008 135.626 38.111 143.221 L 38.111 143.221 L 38.111 143.221 Q 31.213 150.816 31.213 157.016 Z " fill-rule="evenodd" fill="rgb(251,251,251)"/><path d=" M 207.694 86.087 L 206.719 86.087 L 206.719 86.087 Q 206.524 85.307 206.524 84.235 L 206.524 84.235 L 206.524 84.235 Q 206.524 83.162 206.979 81.342 L 206.979 81.342 L 206.979 81.342 Q 207.564 81.342 209.222 81.017 L 209.222 81.017 L 209.222 81.017 Q 210.879 80.692 212.732 78.287 L 212.732 78.287 L 212.732 78.287 Q 214.584 75.882 214.584 72.307 L 214.584 72.307 L 214.584 72.307 Q 214.584 66.067 203.859 66.067 L 203.859 66.067 L 203.859 66.067 Q 199.634 66.067 195.507 67.14 L 195.507 67.14 L 195.507 67.14 Q 191.379 68.212 188.519 70.259 L 188.519 70.259 L 188.519 70.259 Q 185.659 72.307 185.659 74.842 L 185.659 74.842 L 185.659 74.842 Q 185.659 77.702 189.559 78.482 L 189.559 78.482 L 189.559 78.482 Q 189.624 78.937 189.624 79.717 L 189.624 79.717 L 189.624 79.717 Q 189.624 82.707 188.454 85.112 L 188.454 85.112 L 188.454 85.112 Q 185.594 84.852 183.027 82.577 L 183.027 82.577 L 183.027 82.577 Q 180.459 80.302 180.459 75.785 L 180.459 75.785 L 180.459 75.785 Q 180.459 71.267 184.294 67.692 L 184.294 67.692 L 184.294 67.692 Q 191.574 60.997 205.939 60.997 L 205.939 60.997 L 205.939 60.997 Q 226.999 60.997 226.999 71.527 L 226.999 71.527 L 226.999 71.527 Q 226.999 80.237 216.014 83.682 L 216.014 83.682 L 216.014 83.682 Q 219.914 84.072 222.839 86.542 L 222.839 86.542 L 222.839 86.542 Q 229.079 84.787 234.539 84.332 L 234.539 84.332 L 234.539 84.332 Q 235.449 86.152 235.449 87.809 L 235.449 87.809 L 235.449 87.809 Q 235.449 89.467 235.059 90.962 L 235.059 90.962 L 235.059 90.962 Q 233.564 90.767 231.452 90.767 L 231.452 90.767 L 231.452 90.767 Q 229.339 90.767 226.089 91.287 L 226.089 91.287 L 226.089 91.287 Q 226.804 93.237 226.804 95.447 L 226.804 95.447 L 226.804 95.447 Q 226.804 101.882 222.774 106.562 L 222.774 106.562 L 222.774 106.562 Q 218.744 111.242 212.569 111.242 L 212.569 111.242 L 212.569 111.242 Q 207.889 111.242 205.452 108.935 L 205.452 108.935 L 205.452 108.935 Q 203.014 106.627 203.014 102.89 L 203.014 102.89 L 203.014 102.89 Q 203.014 99.152 205.712 95.48 L 205.712 95.48 L 205.712 95.48 Q 208.409 91.807 213.154 89.727 L 213.154 89.727 L 213.154 89.727 Q 212.049 86.087 207.694 86.087 L 207.694 86.087 L 207.694 86.087 Z  M 194.174 76.272 L 194.174 76.272 L 194.174 76.272 Q 194.174 75.102 193.882 74.517 L 193.882 74.517 L 193.882 74.517 Q 193.589 73.932 192.614 72.827 L 192.614 72.827 L 192.614 71.982 L 192.614 71.982 Q 193.914 71.202 196.839 70.584 L 196.839 70.584 L 196.839 70.584 Q 199.764 69.967 201.974 69.967 L 201.974 69.967 L 201.974 69.967 Q 205.549 69.967 206.719 70.292 L 206.719 70.292 L 206.719 70.292 Q 207.109 70.942 207.109 72.957 L 207.109 72.957 L 207.109 72.957 Q 207.109 74.972 203.762 87.842 L 203.762 87.842 L 203.762 87.842 Q 200.414 100.712 199.829 107.212 L 199.829 107.212 L 199.829 107.212 Q 195.149 108.317 189.299 108.317 L 189.299 108.317 L 189.299 108.317 Q 187.739 108.317 187.154 108.122 L 187.154 108.122 L 187.154 108.122 Q 187.479 104.092 190.827 92.099 L 190.827 92.099 L 190.827 92.099 Q 194.174 80.107 194.174 76.272 Z  M 210.424 105.327 L 210.424 105.327 L 210.424 105.327 Q 212.114 105.327 213.219 102.695 L 213.219 102.695 L 213.219 102.695 Q 214.324 100.062 214.324 96.292 L 214.324 96.292 L 214.324 96.292 Q 214.324 95.252 214.259 94.407 L 214.259 94.407 L 214.259 94.407 Q 211.594 95.252 209.742 97.494 L 209.742 97.494 L 209.742 97.494 Q 207.889 99.737 207.889 101.687 L 207.889 101.687 L 207.889 101.687 Q 207.889 105.327 210.424 105.327 Z " fill-rule="evenodd" fill="rgb(254,254,254)"/><path d=" M 218.886 125.123 L 218.886 125.123 L 218.886 125.123 Q 218.886 130.128 214.694 135.133 L 214.694 135.133 L 214.694 135.133 Q 210.501 140.138 203.676 144.298 L 203.676 144.298 L 203.676 144.298 Q 205.171 145.988 207.316 151.448 L 207.316 151.448 L 207.316 151.448 Q 209.461 156.908 210.501 159.118 L 210.501 159.118 L 210.501 159.118 Q 211.541 161.328 212.094 162.498 L 212.094 162.498 L 212.094 162.498 Q 212.646 163.668 213.686 165.618 L 213.686 165.618 L 213.686 165.618 Q 215.506 169.063 216.871 169.063 L 216.871 169.063 L 216.871 169.063 Q 217.586 169.063 218.106 168.803 L 218.106 168.803 L 219.341 172.248 L 219.341 172.248 Q 215.831 174.848 210.826 174.848 L 210.826 174.848 L 210.826 174.848 Q 205.821 174.848 203.774 172.801 L 203.774 172.801 L 203.774 172.801 Q 201.726 170.753 200.231 164.188 L 200.231 164.188 L 200.231 164.188 Q 200.166 163.928 198.866 157.298 L 198.866 157.298 L 198.866 157.298 Q 197.566 150.668 196.721 148.198 L 196.721 148.198 L 196.266 148.198 L 196.266 148.198 Q 194.576 148.198 193.406 146.833 L 193.406 146.833 L 193.406 146.833 Q 192.886 146.443 192.886 144.785 L 192.886 144.785 L 192.886 144.785 Q 192.886 143.128 193.114 142.38 L 193.114 142.38 L 193.114 142.38 Q 193.341 141.633 194.251 141.113 L 194.251 141.113 L 194.251 141.113 Q 195.161 140.593 196.559 140.593 L 196.559 140.593 L 196.559 140.593 Q 197.956 140.593 198.996 141.113 L 198.996 141.113 L 198.996 141.113 Q 202.376 138.383 204.456 135.458 L 204.456 135.458 L 204.456 135.458 Q 206.146 132.403 206.146 128.438 L 206.146 128.438 L 206.146 128.438 Q 206.146 126.553 205.756 124.538 L 205.756 124.538 L 205.756 124.538 Q 208.356 122.978 211.054 122.1 L 211.054 122.1 L 211.054 122.1 Q 213.751 121.223 215.116 121.093 L 215.116 121.093 L 216.481 120.963 L 216.481 120.963 Q 217.521 121.418 218.204 122.686 L 218.204 122.686 L 218.204 122.686 Q 218.886 123.953 218.886 125.123 Z  M 182.421 126.553 L 182.421 126.553 L 182.421 126.553 Q 182.421 125.513 182.129 124.961 L 182.129 124.961 L 182.129 124.961 Q 181.836 124.408 180.991 123.433 L 180.991 123.433 L 180.991 122.523 L 180.991 122.523 Q 182.291 121.743 185.184 121.126 L 185.184 121.126 L 185.184 121.126 Q 188.076 120.508 190.286 120.508 L 190.286 120.508 L 190.286 120.508 Q 193.211 120.508 194.966 120.833 L 194.966 120.833 L 194.966 120.833 Q 195.356 121.548 195.356 122.848 L 195.356 122.848 L 195.356 122.848 Q 195.356 127.983 191.554 143.941 L 191.554 143.941 L 191.554 143.941 Q 187.751 159.898 187.231 165.878 L 187.231 165.878 L 187.231 165.878 Q 182.421 166.983 176.571 166.983 L 176.571 166.983 L 176.571 166.983 Q 175.141 166.983 174.556 166.788 L 174.556 166.788 L 174.556 166.788 Q 174.881 162.693 178.651 146.768 L 178.651 146.768 L 178.651 146.768 Q 182.421 130.843 182.421 126.553 Z " fill-rule="evenodd" fill="rgb(251,251,251)"/></g></g></svg>