<?xml version="1.0" encoding="UTF-8" standalone="no"?><!-- Generator: Gravit.io --><svg xmlns="http://www.w3.org/2000/svg" xmlns:xlink="http://www.w3.org/1999/xlink" style="isolation:isolate" viewBox="0 0 560 315" width="560pt" height="315pt"><defs><clipPath id="_clipPath_Bjue6fx5fggVoWm3AvRh1JDF6H4hJr49"><rect width="560" height="315"/></clipPath></defs><g clip-path="url(#_clipPath_Bjue6fx5fggVoWm3AvRh1JDF6H4hJr49)"><clipPath id="_clipPath_JqACRHCRd0JQHiSBxGB86XGiPgJiQT1p"><rect x="0" y="0" width="560" height="315" transform="matrix(1,0,0,1,0,0)" fill="rgb(255,255,255)"/></clipPath><g clip-path="url(#_clipPath_JqACRHCRd0JQHiSBxGB86XGiPgJiQT1p)"><g><clipPath id="_clipPath_EVzsM9AjouAZXPahYaa0yG8lJdkGB4x3"><rect x="0" y="0" width="560" height="315" transform="matrix(1,0,0,1,0,0)" fill="rgb(255,255,255)"/></clipPath><g clip-path="url(#_clipPath_EVzsM9AjouAZXPahYaa0yG8lJdkGB4x3)"><g><g><path d=" M 196 26 L 374 26 C 393.869 26 410 42.131 410 62 L 410 240 C 410 259.869 393.869 276 374 276 L 196 276 C 176.131 276 160 259.869 160 240 L 160 62 C 160 42.131 176.131 26 196 26 Z " fill="rgb(255,73,89)"/><path d=" M 247.943 125.821 L 247.943 125.821 L 247.943 125.821 Q 247.943 131.556 247.168 138.841 L 247.168 138.841 L 247.168 138.841 Q 258.483 137.291 264.683 136.826 L 264.683 136.826 L 264.683 136.826 Q 269.798 111.561 269.798 97.611 L 269.798 97.611 L 269.643 95.441 L 269.643 95.441 Q 284.833 90.636 299.868 90.636 L 299.868 90.636 L 299.868 90.636 Q 300.488 91.566 300.488 95.131 L 300.488 95.131 L 300.488 95.131 Q 300.488 103.966 293.203 136.516 L 293.203 136.516 L 293.203 136.516 Q 303.743 137.136 314.283 139.306 L 314.283 139.306 L 314.283 141.166 L 314.283 141.166 Q 314.283 145.041 313.818 146.514 L 313.818 146.514 L 313.818 146.514 Q 313.353 147.986 313.198 148.761 L 313.198 148.761 L 313.198 148.761 Q 313.043 149.536 312.423 150.544 L 312.423 150.544 L 312.423 150.544 Q 311.803 151.551 311.648 152.016 L 311.648 152.016 L 311.648 152.016 Q 311.028 153.566 309.943 154.651 L 309.943 154.651 L 309.943 154.651 Q 299.093 151.551 290.258 150.311 L 290.258 150.311 L 290.258 150.311 Q 285.608 172.476 285.608 181.621 L 285.608 181.621 L 285.608 181.621 Q 285.608 184.256 286.073 185.264 L 286.073 185.264 L 286.073 185.264 Q 286.538 186.271 288.786 186.271 L 288.786 186.271 L 288.786 186.271 Q 291.033 186.271 295.218 184.721 L 295.218 184.721 L 298.628 192.626 L 298.628 192.626 Q 282.818 202.546 270.573 202.546 L 270.573 202.546 L 270.573 202.546 Q 255.228 202.546 255.228 187.201 L 255.228 187.201 L 255.228 187.201 Q 255.228 179.296 262.048 149.071 L 262.048 149.071 L 262.048 149.071 Q 253.833 149.536 245.463 150.931 L 245.463 150.931 L 245.463 150.931 Q 240.968 173.561 230.273 189.216 L 230.273 189.216 L 230.273 189.216 Q 224.848 197.276 217.331 201.849 L 217.331 201.849 L 217.331 201.849 Q 209.813 206.421 200.436 206.421 L 200.436 206.421 L 200.436 206.421 Q 191.058 206.421 185.168 200.299 L 185.168 200.299 L 185.168 200.299 Q 179.278 194.176 179.278 184.411 L 179.278 184.411 L 179.278 184.411 Q 179.278 174.646 188.888 163.564 L 188.888 163.564 L 188.888 163.564 Q 198.498 152.481 217.873 145.041 L 217.873 145.041 L 217.873 145.041 Q 219.423 135.741 219.423 126.054 L 219.423 126.054 L 219.423 126.054 Q 219.423 116.366 218.028 112.801 L 218.028 112.801 L 218.028 112.801 Q 216.633 109.236 212.448 109.236 L 212.448 109.236 L 212.448 109.236 Q 205.938 109.236 193.073 118.381 L 193.073 118.381 L 187.183 110.321 L 187.183 110.321 Q 207.023 92.651 225.313 92.651 L 225.313 92.651 L 225.313 92.651 Q 238.023 92.651 242.983 101.409 L 242.983 101.409 L 242.983 101.409 Q 247.943 110.166 247.943 125.821 Z  M 191.213 183.016 L 191.213 183.016 L 191.213 183.016 Q 191.213 186.271 193.151 188.751 L 193.151 188.751 L 193.151 188.751 Q 195.088 191.231 198.188 191.231 L 198.188 191.231 L 198.188 191.231 Q 203.923 191.231 208.883 181.776 L 208.883 181.776 L 208.883 181.776 Q 213.843 172.321 216.478 157.441 L 216.478 157.441 L 216.478 157.441 Q 205.008 161.626 198.111 169.221 L 198.111 169.221 L 198.111 169.221 Q 191.213 176.816 191.213 183.016 Z " fill-rule="evenodd" fill="rgb(251,251,251)"/><path d=" M 367.694 112.087 L 366.719 112.087 L 366.719 112.087 Q 366.524 111.307 366.524 110.235 L 366.524 110.235 L 366.524 110.235 Q 366.524 109.162 366.979 107.342 L 366.979 107.342 L 366.979 107.342 Q 367.564 107.342 369.222 107.017 L 369.222 107.017 L 369.222 107.017 Q 370.879 106.692 372.732 104.287 L 372.732 104.287 L 372.732 104.287 Q 374.584 101.882 374.584 98.307 L 374.584 98.307 L 374.584 98.307 Q 374.584 92.067 363.859 92.067 L 363.859 92.067 L 363.859 92.067 Q 359.634 92.067 355.507 93.14 L 355.507 93.14 L 355.507 93.14 Q 351.379 94.212 348.519 96.259 L 348.519 96.259 L 348.519 96.259 Q 345.659 98.307 345.659 100.842 L 345.659 100.842 L 345.659 100.842 Q 345.659 103.702 349.559 104.482 L 349.559 104.482 L 349.559 104.482 Q 349.624 104.937 349.624 105.717 L 349.624 105.717 L 349.624 105.717 Q 349.624 108.707 348.454 111.112 L 348.454 111.112 L 348.454 111.112 Q 345.594 110.852 343.027 108.577 L 343.027 108.577 L 343.027 108.577 Q 340.459 106.302 340.459 101.785 L 340.459 101.785 L 340.459 101.785 Q 340.459 97.267 344.294 93.692 L 344.294 93.692 L 344.294 93.692 Q 351.574 86.997 365.939 86.997 L 365.939 86.997 L 365.939 86.997 Q 386.999 86.997 386.999 97.527 L 386.999 97.527 L 386.999 97.527 Q 386.999 106.237 376.014 109.682 L 376.014 109.682 L 376.014 109.682 Q 379.914 110.072 382.839 112.542 L 382.839 112.542 L 382.839 112.542 Q 389.079 110.787 394.539 110.332 L 394.539 110.332 L 394.539 110.332 Q 395.449 112.152 395.449 113.809 L 395.449 113.809 L 395.449 113.809 Q 395.449 115.467 395.059 116.962 L 395.059 116.962 L 395.059 116.962 Q 393.564 116.767 391.452 116.767 L 391.452 116.767 L 391.452 116.767 Q 389.339 116.767 386.089 117.287 L 386.089 117.287 L 386.089 117.287 Q 386.804 119.237 386.804 121.447 L 386.804 121.447 L 386.804 121.447 Q 386.804 127.882 382.774 132.562 L 382.774 132.562 L 382.774 132.562 Q 378.744 137.242 372.569 137.242 L 372.569 137.242 L 372.569 137.242 Q 367.889 137.242 365.452 134.935 L 365.452 134.935 L 365.452 134.935 Q 363.014 132.627 363.014 128.89 L 363.014 128.89 L 363.014 128.89 Q 363.014 125.152 365.712 121.48 L 365.712 121.48 L 365.712 121.48 Q 368.409 117.807 373.154 115.727 L 373.154 115.727 L 373.154 115.727 Q 372.049 112.087 367.694 112.087 L 367.694 112.087 L 367.694 112.087 Z  M 354.174 102.272 L 354.174 102.272 L 354.174 102.272 Q 354.174 101.102 353.882 100.517 L 353.882 100.517 L 353.882 100.517 Q 353.589 99.932 352.614 98.827 L 352.614 98.827 L 352.614 97.982 L 352.614 97.982 Q 353.914 97.202 356.839 96.584 L 356.839 96.584 L 356.839 96.584 Q 359.764 95.967 361.974 95.967 L 361.974 95.967 L 361.974 95.967 Q 365.549 95.967 366.719 96.292 L 366.719 96.292 L 366.719 96.292 Q 367.109 96.942 367.109 98.957 L 367.109 98.957 L 367.109 98.957 Q 367.109 100.972 363.762 113.842 L 363.762 113.842 L 363.762 113.842 Q 360.414 126.712 359.829 133.212 L 359.829 133.212 L 359.829 133.212 Q 355.149 134.317 349.299 134.317 L 349.299 134.317 L 349.299 134.317 Q 347.739 134.317 347.154 134.122 L 347.154 134.122 L 347.154 134.122 Q 347.479 130.092 350.827 118.099 L 350.827 118.099 L 350.827 118.099 Q 354.174 106.107 354.174 102.272 Z  M 370.424 131.327 L 370.424 131.327 L 370.424 131.327 Q 372.114 131.327 373.219 128.695 L 373.219 128.695 L 373.219 128.695 Q 374.324 126.062 374.324 122.292 L 374.324 122.292 L 374.324 122.292 Q 374.324 121.252 374.259 120.407 L 374.259 120.407 L 374.259 120.407 Q 371.594 121.252 369.742 123.494 L 369.742 123.494 L 369.742 123.494 Q 367.889 125.737 367.889 127.687 L 367.889 127.687 L 367.889 127.687 Q 367.889 131.327 370.424 131.327 Z " fill-rule="evenodd" fill="rgb(254,254,254)"/><path d=" M 378.886 151.123 L 378.886 151.123 L 378.886 151.123 Q 378.886 156.128 374.694 161.133 L 374.694 161.133 L 374.694 161.133 Q 370.501 166.138 363.676 170.298 L 363.676 170.298 L 363.676 170.298 Q 365.171 171.988 367.316 177.448 L 367.316 177.448 L 367.316 177.448 Q 369.461 182.908 370.501 185.118 L 370.501 185.118 L 370.501 185.118 Q 371.541 187.328 372.094 188.498 L 372.094 188.498 L 372.094 188.498 Q 372.646 189.668 373.686 191.618 L 373.686 191.618 L 373.686 191.618 Q 375.506 195.063 376.871 195.063 L 376.871 195.063 L 376.871 195.063 Q 377.586 195.063 378.106 194.803 L 378.106 194.803 L 379.341 198.248 L 379.341 198.248 Q 375.831 200.848 370.826 200.848 L 370.826 200.848 L 370.826 200.848 Q 365.821 200.848 363.774 198.801 L 363.774 198.801 L 363.774 198.801 Q 361.726 196.753 360.231 190.188 L 360.231 190.188 L 360.231 190.188 Q 360.166 189.928 358.866 183.298 L 358.866 183.298 L 358.866 183.298 Q 357.566 176.668 356.721 174.198 L 356.721 174.198 L 356.266 174.198 L 356.266 174.198 Q 354.576 174.198 353.406 172.833 L 353.406 172.833 L 353.406 172.833 Q 352.886 172.443 352.886 170.785 L 352.886 170.785 L 352.886 170.785 Q 352.886 169.128 353.114 168.38 L 353.114 168.38 L 353.114 168.38 Q 353.341 167.633 354.251 167.113 L 354.251 167.113 L 354.251 167.113 Q 355.161 166.593 356.559 166.593 L 356.559 166.593 L 356.559 166.593 Q 357.956 166.593 358.996 167.113 L 358.996 167.113 L 358.996 167.113 Q 362.376 164.383 364.456 161.458 L 364.456 161.458 L 364.456 161.458 Q 366.146 158.403 366.146 154.438 L 366.146 154.438 L 366.146 154.438 Q 366.146 152.553 365.756 150.538 L 365.756 150.538 L 365.756 150.538 Q 368.356 148.978 371.054 148.1 L 371.054 148.1 L 371.054 148.1 Q 373.751 147.223 375.116 147.093 L 375.116 147.093 L 376.481 146.963 L 376.481 146.963 Q 377.521 147.418 378.204 148.686 L 378.204 148.686 L 378.204 148.686 Q 378.886 149.953 378.886 151.123 Z  M 342.421 152.553 L 342.421 152.553 L 342.421 152.553 Q 342.421 151.513 342.129 150.961 L 342.129 150.961 L 342.129 150.961 Q 341.836 150.408 340.991 149.433 L 340.991 149.433 L 340.991 148.523 L 340.991 148.523 Q 342.291 147.743 345.184 147.126 L 345.184 147.126 L 345.184 147.126 Q 348.076 146.508 350.286 146.508 L 350.286 146.508 L 350.286 146.508 Q 353.211 146.508 354.966 146.833 L 354.966 146.833 L 354.966 146.833 Q 355.356 147.548 355.356 148.848 L 355.356 148.848 L 355.356 148.848 Q 355.356 153.983 351.554 169.941 L 351.554 169.941 L 351.554 169.941 Q 347.751 185.898 347.231 191.878 L 347.231 191.878 L 347.231 191.878 Q 342.421 192.983 336.571 192.983 L 336.571 192.983 L 336.571 192.983 Q 335.141 192.983 334.556 192.788 L 334.556 192.788 L 334.556 192.788 Q 334.881 188.693 338.651 172.768 L 338.651 172.768 L 338.651 172.768 Q 342.421 156.843 342.421 152.553 Z " fill-rule="evenodd" fill="rgb(251,251,251)"/></g></g></g></g></g></g></svg>