<?xml version="1.0" encoding="UTF-8" standalone="no"?><!-- Generator: Gravit.io --><svg xmlns="http://www.w3.org/2000/svg" xmlns:xlink="http://www.w3.org/1999/xlink" style="isolation:isolate" viewBox="0 0 1053.449 822" width="1053.449pt" height="822pt"><defs><clipPath id="_clipPath_t4SiiJRb2fAGAPlwMoNOWAfwACqHcUWG"><rect width="1053.449" height="822"/></clipPath></defs><g clip-path="url(#_clipPath_t4SiiJRb2fAGAPlwMoNOWAfwACqHcUWG)"><clipPath id="_clipPath_cq3AsAOwcKCGdySQoICi8NR85kkno4yA"><rect x="0" y="0" width="1053.449" height="822" transform="matrix(1,0,0,1,0,0)" fill="rgb(255,255,255)"/></clipPath><g clip-path="url(#_clipPath_cq3AsAOwcKCGdySQoICi8NR85kkno4yA)"><g><clipPath id="_clipPath_gqkyIVqfFb0yFo2ZyGd4osBuPqEOd3ys"><rect x="0" y="0" width="1053.449" height="822" transform="matrix(1,0,0,1,0,0)" fill="rgb(255,255,255)"/></clipPath><g clip-path="url(#_clipPath_gqkyIVqfFb0yFo2ZyGd4osBuPqEOd3ys)"><g><g><clipPath id="_clipPath_qDLPcj06Bd7e4O7pQl2njc1NhSL63ind"><rect x="0" y="0" width="1053.449" height="822" transform="matrix(1,0,0,1,0,0)" fill="rgb(255,255,255)"/></clipPath><g clip-path="url(#_clipPath_qDLPcj06Bd7e4O7pQl2njc1NhSL63ind)"><g><g><g><rect x="305.036" y="15.947" width="97.983" height="796.859" transform="matrix(0.925,-0.379,0.379,0.925,-130.675,165.163)" fill="#ff3b4b"/><rect x="141.484" y="37.481" width="97.983" height="763.156" transform="matrix(0.925,-0.379,0.379,0.925,-144.661,103.504)" fill="#ff3b4b"/><rect x="480.956" y="-7.134" width="97.983" height="796.859" transform="matrix(0.925,-0.379,0.379,0.925,-108.789,230.138)" fill="#ff3b4b"/><ellipse vector-effect="non-scaling-stroke" cx="487.44893" cy="773.5" rx="290" ry="48.5" fill="rgb(63,61,86)"/><path d=" M 964.514 625.08 L 962.33 624.413 L 147.082 375.744 L 149.325 374.624 L 708.975 95.152 L 709.416 96.065 L 964.514 625.08 L 964.514 625.08 Z  M 152.461 375.293 L 960.729 621.834 L 708.056 97.848 L 152.461 375.293 L 152.461 375.293 Z " fill="rgb(63,61,86)"/><rect x="850.449" y="515" width="203" height="194" transform="matrix(1,0,0,1,0,0)" fill="rgb(208,205,225)"/><rect x="633.449" y="0" width="203" height="194" transform="matrix(1,0,0,1,0,0)" fill="rgb(208,205,225)"/><rect x="60.449" y="278" width="203" height="194" transform="matrix(1,0,0,1,0,0)" fill="rgb(208,205,225)"/><text transform="matrix(1,0,0,1,483.724,418.759)" style="font-family:'Open Sans';font-weight:400;font-size:20px;font-style:normal;font-variant-ligatures:none;fill:#000000;stroke:none;">#3F3D56</text><path d=" M 447.949 248.5 L 441.949 248.5 L 416.449 341 C 416.449 341 415.949 402.5 421.949 432.5 C 421.949 432.5 431.949 419.5 438.949 419.5 C 445.949 419.5 452.449 354 452.449 354 C 452.449 354 479.949 260.5 447.949 248.5 Z " fill="rgb(117,117,117)"/><path d=" M 579.949 425.5 C 579.949 425.5 563.949 470.5 578.949 473.5 C 578.949 473.5 601.949 438.5 597.949 433.5 C 593.949 428.5 579.949 425.5 579.949 425.5 Z " fill="rgb(255,203,185)"/><path d=" M 420.322 416.203 C 420.322 416.203 424.82 463.751 439.684 460.136 C 439.684 460.136 445.754 418.698 440.017 415.854 C 434.28 413.011 420.322 416.203 420.322 416.203 Z " fill="rgb(255,203,185)"/><path d=" M 458.949 694.5 C 458.949 694.5 465.949 728.5 453.949 737.5 C 453.949 737.5 457.949 765.5 457.949 765.5 L 495.949 725.5 C 495.949 725.5 479.949 700.5 480.949 685.5 L 458.949 694.5 L 458.949 694.5 Z " fill="rgb(255,203,185)"/><path d=" M 518.949 725.5 L 514.949 752.5 L 513.949 771.5 L 535.949 769.5 L 538.949 730.5 L 518.949 725.5 L 518.949 725.5 L 518.949 725.5 Z " fill="rgb(255,203,185)"/><text transform="matrix(1,0,0,1,483.724,418.759)" style="font-family:'Open Sans';font-weight:400;font-size:20px;font-style:normal;font-variant-ligatures:none;fill:#000000;stroke:none;">#FFCBB9</text><path d=" M 434.281 420.969 C 434.281 420.969 421.949 425.5 422.949 438.5 C 422.949 438.5 426.949 492.5 426.949 492.5 C 426.949 492.5 417.949 580.5 426.949 610.5 C 426.949 610.5 452.949 700.5 452.949 700.5 C 452.949 700.5 478.949 705.5 484.949 686.5 C 484.949 686.5 483.949 621.5 472.949 607.5 C 461.949 593.5 469.949 589.5 470.949 587.5 C 471.949 585.5 474.949 582.5 474.949 579.5 C 474.949 576.5 475.949 565.5 475.949 561.5 C 475.949 557.5 474.949 558.5 476.949 552.5 C 478.949 546.5 480.949 544.5 480.949 543.5 C 480.949 542.5 497.949 489.5 497.949 489.5 L 519.949 612.5 C 519.949 612.5 514.949 733.5 516.949 733.5 C 516.949 733.5 540.949 741.5 548.949 733.5 C 548.949 733.5 568.949 629.5 564.949 623.5 C 560.949 617.5 559.949 616.5 560.949 610.5 C 561.949 604.5 563.949 601.5 561.949 598.5 C 559.949 595.5 556.949 585.5 559.949 582.5 C 562.949 579.5 563.949 565.5 563.949 565.5 C 563.949 565.5 580.949 467.5 569.949 453.5 C 558.949 439.5 434.281 420.969 434.281 420.969 Z " fill="rgb(25,42,128)"/><text transform="matrix(1,0,0,1,483.724,418.759)" style="font-family:'Open Sans';font-weight:400;font-size:20px;font-style:normal;font-variant-ligatures:none;fill:#000000;stroke:none;">#1A224A</text><path d=" M 467.949 738.5 C 467.949 738.5 455.949 723.5 451.949 730.5 C 451.949 730.5 441.949 748.5 441.949 748.5 C 441.949 748.5 396.949 787.5 421.949 788.5 C 421.949 788.5 462.949 771.5 462.949 771.5 C 462.949 771.5 466.949 751.5 478.949 751.5 L 480.949 756.5 L 502.949 742.5 C 502.949 742.5 499.851 715.949 490.9 716.724 L 467.949 738.5 L 467.949 738.5 Z " fill="rgb(65,52,46)"/><path d=" M 509.949 768.5 C 509.949 768.5 535.949 758.5 538.949 768.5 C 538.949 768.5 541.949 783.5 541.949 783.5 C 541.949 783.5 563.949 819.5 541.949 821.5 C 541.949 821.5 509.949 809.5 509.949 809.5 C 509.949 809.5 512.949 792.5 509.949 790.5 C 506.949 788.5 509.949 768.5 509.949 768.5 Z " fill="rgb(65,52,46)"/><circle vector-effect="non-scaling-stroke" cx="527.94893" cy="181.5" r="35" fill="rgb(255,203,185)"/><path d=" M 501.949 189.5 L 494.949 228.5 L 543.949 240.5 C 543.949 240.5 532.449 212 544.949 199.5 C 548.111 196.338 501.949 189.5 501.949 189.5 Z " fill="rgb(255,203,185)"/><path d=" M 497.931 211.885 C 495.522 212.339 493.585 214.132 492.949 216.5 C 492.076 219.373 490.724 222.078 488.949 224.5 C 488.949 224.5 441.949 246.5 441.949 249.5 C 441.949 249.5 460.949 316.5 460.949 316.5 C 460.949 316.5 461.949 356.5 453.949 365.5 C 453.949 365.5 437.949 407.5 439.949 410.5 C 439.949 410.5 425.949 420.5 431.949 425.5 C 431.949 425.5 521.949 478.5 571.949 456.5 C 571.949 456.5 572.949 447.5 571.949 441.5 C 570.949 435.5 577.949 415.5 575.949 408.5 C 573.949 401.5 575.949 329.5 575.949 329.5 L 586.255 244.243 C 586.661 240.901 584.609 237.749 581.387 236.768 C 569.862 233.265 543.133 218.923 539.449 222 C 534.678 225.984 504.913 223.27 497.931 211.885 Z " fill="rgb(117,117,117)"/><path d=" M 576.949 236.5 L 577.013 236.474 C 579.955 235.294 583.322 236.259 585.193 238.818 C 591.39 247.297 604.431 266.355 605.949 278.5 C 607.949 294.5 613.949 337.5 612.949 343.5 C 611.949 349.5 610.949 350.5 612.949 353.5 C 614.949 356.5 613.949 355.5 612.949 358.5 C 611.949 361.5 599.949 444.5 599.949 444.5 C 599.949 444.5 591.949 426.5 576.949 432.5 C 576.949 432.5 578.949 416.5 576.949 411.5 C 574.949 406.5 572.949 403.5 574.949 399.5 C 576.949 395.5 574.949 356.5 573.949 352.5 C 572.949 348.5 573.949 327.5 573.949 327.5 L 564.949 286.5 L 576.949 236.5 L 576.949 236.5 Z " fill="rgb(117,117,117)"/><path d=" M 521.412 187.459 L 522.594 179.218 C 522.87 177.297 523.994 174.771 525.863 175.293 C 527.452 175.738 530.915 177.098 531.495 176.688 C 533.667 175.15 536.952 177.839 539.236 176.473 C 540.192 175.9 540.817 174.674 541.928 174.592 C 542.674 174.64 543.377 174.958 543.905 175.487 C 545.387 176.776 547.134 177.725 549.022 178.267 C 550.951 178.792 553.013 178.23 554.408 176.799 C 554.65 176.424 554.977 176.112 555.361 175.886 C 555.812 175.756 556.293 175.778 556.731 175.949 L 562.565 177.537 C 564.301 171.242 563.206 164.502 559.565 159.08 C 557.199 155.868 554.329 153.058 551.068 150.759 Q 545.649 146.636 539.883 143.003 C 535.675 140.345 531.213 137.838 526.293 137.091 C 521.373 136.343 515.864 137.68 512.77 141.577 C 511.314 140.524 510.22 139.046 509.638 137.346 C 508.935 137.985 508.552 138.903 508.592 139.851 C 508.632 140.8 509.091 141.682 509.844 142.26 L 504.91 139.109 C 503.523 140.566 506.233 143.207 505.052 144.834 C 504.694 145.237 504.236 145.536 503.723 145.701 C 501.044 146.746 498.589 148.291 496.489 150.255 C 493.653 153.098 492.113 156.958 490.791 160.751 C 487.851 169.186 485.714 178.859 489.891 186.754 C 490.365 187.65 496.616 202.424 497.449 203 C 500.264 204.948 498.432 200.234 500.449 203 C 502.031 205.169 501.735 196.868 504.086 198.69 C 505.969 200.038 508.469 200.15 510.465 198.977 C 511.44 198.301 511.126 194.547 510.6 191.1 C 510.396 189.767 510.867 188.419 511.857 187.504 C 512.847 186.588 514.227 186.223 515.541 186.531 C 518.469 187.22 521.362 187.809 521.412 187.459 Z " fill="rgb(200,158,144)"/><g style="opacity:0.1;"><g style="opacity:0.1;"><g style="opacity:0.1;"><g opacity="0.1"><line x1="569.602" y1="267.111" x2="578.449" y2="367"/></g></g></g></g><path d=" M 716.165 74.307 L 768.165 97.307 L 716.165 119.307 L 716.165 74.307 L 716.165 74.307 L 716.165 74.307 Z " fill="rgb(63,61,86)"/><path d=" M 238.516 452.519 L 84.516 452.519 L 84.516 298.519 L 238.516 298.519 L 238.516 452.519 L 238.516 452.519 Z  M 86.655 450.38 L 236.377 450.38 L 236.377 300.657 L 86.655 300.657 L 86.655 450.38 L 86.655 450.38 Z " fill="rgb(63,61,86)"/><rect x="114.46" y="371.226" width="94.111" height="8.584" transform="matrix(1,0,0,1,0,0)" fill="rgb(63,61,86)"/><rect x="114.46" y="347.226" width="94.111" height="8.584" transform="matrix(1,0,0,1,0,0)" fill="rgb(63,61,86)"/><rect x="114.46" y="371.226" width="94.111" height="8.584" transform="matrix(1,0,0,1,0,0)" fill="rgb(63,61,86)"/><rect x="114.46" y="395.226" width="94.111" height="8.584" transform="matrix(1,0,0,1,0,0)" fill="rgb(63,61,86)"/><path d=" M 1026.622 648.957 L 876.622 648.957 L 876.622 575.957 L 1026.622 575.957 L 1026.622 648.957 L 1026.622 648.957 Z  M 878.622 646.957 L 1024.622 646.957 L 1024.622 577.957 L 878.622 577.957 L 878.622 646.957 L 878.622 646.957 Z " fill="rgb(63,61,86)"/><circle vector-effect="non-scaling-stroke" cx="917.62216" cy="612.45669" r="11" fill="rgb(63,61,86)"/><circle vector-effect="non-scaling-stroke" cx="951.62216" cy="612.45669" r="11" fill="rgb(63,61,86)"/><circle vector-effect="non-scaling-stroke" cx="985.62216" cy="612.45669" r="11" fill="rgb(63,61,86)"/><path d=" M 809.949 134.82 L 659.949 134.82 L 659.949 61.82 L 809.949 61.82 L 809.949 134.82 L 809.949 134.82 Z  M 661.949 132.82 L 807.949 132.82 L 807.949 63.82 L 661.949 63.82 L 661.949 132.82 L 661.949 132.82 Z " fill="rgb(63,61,86)"/></g></g></g></g></g></g></g></g></g></g></svg>